<?xml version="1.0" encoding="UTF-8"?>
<svg version="1.1" xmlns="http://www.w3.org/2000/svg" width="4961" height="3508">
<path d="M0 0 C-5.52371134 4.92511985 -11.34511994 9.18104538 -17.4375 13.375 C-18.45263672 14.07705566 -19.46777344 14.77911133 -20.51367188 15.50244141 C-30.35176689 22.2839379 -40.29157141 28.9081322 -50.25146484 35.50878906 C-54.68210473 38.44969913 -59.10022501 41.40928709 -63.51953125 44.3671875 C-66.09695612 46.09079174 -68.67454617 47.81414865 -71.25219727 49.53741455 C-72.92556048 50.65672652 -74.59843332 51.77677202 -76.27075195 52.89764404 C-85.31284456 58.95676174 -94.39381324 64.94888874 -103.57421875 70.796875 C-104.38953568 71.32001282 -105.2048526 71.84315063 -106.0448761 72.38214111 C-106.79665634 72.85770447 -107.54843658 73.33326782 -108.32299805 73.82324219 C-108.98639694 74.24482605 -109.64979584 74.66640991 -110.33329773 75.10076904 C-112 76 -112 76 -114 76 C-114 76.99 -114 77.98 -114 79 C-113.29488281 79.22300781 -112.58976562 79.44601562 -111.86328125 79.67578125 C-108.3799137 81.28677934 -105.91732295 83.55902641 -103.1875 86.1875 C-102.12578877 87.1883374 -101.06328807 88.18833798 -100 89.1875 C-99.48695313 89.6721875 -98.97390625 90.156875 -98.4453125 90.65625 C-96.57621629 92.39400431 -94.63783581 94.04190416 -92.6875 95.6875 C-89.53125332 98.42591361 -86.87459132 101.38095543 -84.1796875 104.56640625 C-81.2462946 107.84150263 -78.1260501 110.90981592 -75 114 C-70.74006631 118.22002799 -66.57303624 122.44421599 -62.6953125 127.0234375 C-60.5637683 129.50860194 -58.34316401 131.90440146 -56.125 134.3125 C-52.10619407 138.72353173 -48.27134676 143.23735358 -44.52734375 147.8828125 C-42.64952084 150.21237942 -40.73975883 152.51257397 -38.81640625 154.8046875 C-18.85274254 178.64962465 -1.26431633 204.30636248 13.6796875 231.58984375 C14.53484758 233.1508904 15.39643338 234.70844114 16.265625 236.26171875 C29.15363571 259.30515563 38.91967356 283.90910208 47 309 C47.30599121 309.93231445 47.61198242 310.86462891 47.92724609 311.82519531 C63.42647201 359.25940767 72.22142478 410.08169428 73 460 C73.02046387 461.01481445 73.04092773 462.02962891 73.06201172 463.07519531 C74.53893429 544.97726532 56.92410856 625.90769696 -27 776 C-27.8664606 777.12064927 -28.73231072 778.24177072 -29.59765625 779.36328125 C-34.59364084 785.80922695 -39.72094012 792.12286855 -45.02172852 798.32055664 C-47.84790442 801.62521725 -50.59755167 804.9775508 -53.3125 808.375 C-66.02975952 823.95589774 -80.472278 839.37931009 -96.30078125 851.80078125 C-99.46446979 854.37843197 -102.40888384 857.13782713 -105.375 859.9375 C-111.00049606 865.20407984 -116.90641469 869.9772645 -123.09179688 874.57177734 C-125.21583565 876.16154537 -127.31895676 877.77693637 -129.421875 879.39453125 C-146.80700996 892.69872336 -164.91806968 905.23617562 -184 916 C-184.82806152 916.46937988 -185.65612305 916.93875977 -186.50927734 917.42236328 C-247.76653042 951.92507368 -315.25607607 972.35040903 -385 980 C-386.01465332 980.11714355 -387.02930664 980.23428711 -388.07470703 980.35498047 C-424.85938735 984.43812245 -463.28527073 983.50013033 -500 979 C-500.69339478 978.91514343 -501.38678955 978.83028687 -502.10119629 978.74285889 C-538.27223077 974.246275 -573.60211015 965.61115278 -608 953.5625 C-609.80404297 952.93553223 -609.80404297 952.93553223 -611.64453125 952.29589844 C-629.23565793 945.99225255 -646.0396009 937.6771736 -662.82543945 929.51367188 C-665.7470398 928.09611129 -668.67524095 926.69277435 -671.60351562 925.2890625 C-673.46916884 924.38367505 -675.33441982 923.47745817 -677.19921875 922.5703125 C-678.50822395 921.94686447 -678.50822395 921.94686447 -679.84367371 921.31082153 C-680.63993668 920.91966156 -681.43619965 920.52850159 -682.2565918 920.12548828 C-682.95793747 919.78623322 -683.65928314 919.44697815 -684.38188171 919.09744263 C-686 918 -686 918 -687 915 C-686 912 -686 912 -683.9543457 910.73925781 C-682.5789563 910.10262207 -682.5789563 910.10262207 -681.17578125 909.453125 C-680.107229 908.94958496 -679.03867676 908.44604492 -677.93774414 907.92724609 C-676.74141357 907.37375488 -675.54508301 906.82026367 -674.3125 906.25 C-671.66867731 905.00410767 -669.02955763 903.74839875 -666.390625 902.4921875 C-665.30673241 901.97750412 -665.30673241 901.97750412 -664.20094299 901.4524231 C-654.93046115 897.03710744 -645.74172208 892.45695776 -636.55575562 887.86901855 C-634.59431102 886.89000607 -632.63196025 885.91280651 -630.66860962 884.93762207 C-619.16977195 879.22600686 -607.8074386 873.32391028 -596.5557251 867.13893127 C-590.03799925 863.55662815 -583.50265984 860.06514679 -576.8125 856.8125 C-575.45415039 856.11930664 -575.45415039 856.11930664 -574.06835938 855.41210938 C-563.25461601 850.15575018 -554.49937425 850.57892904 -543.0625 853.5625 C-540.76871479 854.12438204 -538.47442487 854.68420685 -536.1796875 855.2421875 C-535.00116211 855.53319336 -533.82263672 855.82419922 -532.60839844 856.12402344 C-440.91126629 878.38446391 -346.11545724 868.13940179 -261 827 C-259.56454834 826.30680664 -259.56454834 826.30680664 -258.10009766 825.59960938 C-223.07246734 808.48122223 -193.31100053 784.36747653 -164 759 C-163.22011719 758.33355469 -162.44023438 757.66710938 -161.63671875 756.98046875 C-154.13102245 750.52411251 -147.5308003 743.62225259 -141.3359375 735.89453125 C-139.02383041 733.02952899 -136.64200478 730.23591335 -134.25 727.4375 C-68.34483218 648.37170269 -39.58883926 551.86491732 -42.94775391 433.13061523 C-46.98549223 388.69918614 -59.82161208 345.20626397 -79 305 C-79.47405273 303.9996875 -79.94810547 302.999375 -80.43652344 301.96875 C-92.58787712 276.51340921 -106.81178179 251.66704581 -125 230 C-126.43818363 228.22972183 -127.87564705 226.45885839 -129.3125 224.6875 C-132.71796492 220.53506781 -136.15870074 216.41413818 -139.625 212.3125 C-140.27142456 211.54715942 -140.27142456 211.54715942 -140.9309082 210.76635742 C-142.28195743 209.17294927 -143.63973452 207.58554714 -145 206 C-145.53278564 205.37601318 -146.06557129 204.75202637 -146.61450195 204.10913086 C-150.86454924 199.18311737 -155.32461959 194.52369065 -159.9375 189.9375 C-160.60201172 189.26912109 -161.26652344 188.60074219 -161.95117188 187.91210938 C-166.46918912 183.40285647 -171.15705854 179.15609882 -176 175 C-176.97582031 174.14277344 -177.95164062 173.28554687 -178.95703125 172.40234375 C-185.47734675 166.77400028 -192.20002047 161.49876385 -199.125 156.375 C-200.36987183 155.45062134 -200.36987183 155.45062134 -201.63989258 154.50756836 C-202.81201294 153.64917358 -202.81201294 153.64917358 -204.0078125 152.7734375 C-204.70535645 152.26216309 -205.40290039 151.75088867 -206.12158203 151.22412109 C-208.08705588 149.83041371 -208.08705588 149.83041371 -211 149 C-213.24176677 150.33343835 -215.23772102 151.68851861 -217.3125 153.25 C-217.93060547 153.70383057 -218.54871094 154.15766113 -219.18554688 154.62524414 C-225.31138127 159.1552273 -231.29597124 163.86648713 -237.25439453 168.61328125 C-239.56101327 170.44567208 -241.88051098 172.26134601 -244.20019531 174.07714844 C-251.62567672 179.89147986 -258.99356687 185.77653899 -266.35009766 191.67773438 C-268.54273522 193.43495915 -270.74047371 195.18576715 -272.9375 196.9375 C-278.01769793 200.99996212 -283.06052697 205.10814269 -288.10595703 209.21362305 C-291.82905983 212.24156445 -295.56044278 215.25792886 -299.3125 218.25 C-304.0172068 222.00441834 -308.67931158 225.80870192 -313.32910156 229.63085938 C-315.23348904 231.19132182 -317.14414799 232.74395157 -319.0546875 234.296875 C-327.02605806 240.79319636 -334.83944855 247.36854286 -342.32617188 254.42333984 C-344.29036412 256.27350809 -346.2624925 258.11506204 -348.234375 259.95703125 C-349.73998787 261.36675557 -351.24519752 262.77691067 -352.75 264.1875 C-353.44738281 264.84089355 -354.14476562 265.49428711 -354.86328125 266.16748047 C-359.04423843 270.10349068 -363.1388999 274.10938865 -367.16772461 278.20117188 C-368.98806447 279.98828234 -370.87048895 281.65925893 -372.8125 283.3125 C-376.20195583 286.22250432 -379.364518 289.32159559 -382.5 292.5 C-386.18993853 296.24031312 -389.97503694 299.78239347 -393.97265625 303.19140625 C-396.41428634 305.36958492 -398.70048032 307.67248008 -401 310 C-403.89591958 312.93118191 -406.80242571 315.76403174 -409.9375 318.4375 C-413.28925164 321.30172413 -416.40555399 324.36335221 -419.5 327.5 C-422.51231105 330.5531698 -425.53548902 333.54072412 -428.8125 336.3125 C-437.15443952 343.44796067 -445.03148683 351.45194914 -452.11328125 359.8359375 C-453.68022456 361.63321823 -455.27886297 363.3710222 -456.91796875 365.1015625 C-463.96023433 372.53810243 -470.50811007 380.16423662 -476.70898438 388.31494141 C-477.95096645 389.93600046 -479.21310721 391.53856792 -480.484375 393.13671875 C-500.94485722 419.10328616 -518.41029024 448.63919708 -529 480 C-529.22655273 480.66854004 -529.45310547 481.33708008 -529.68652344 482.02587891 C-537.23714206 504.85069523 -536.68158701 527.021647 -526.65625 548.9375 C-517.42827084 566.98332591 -503.22996727 577.83826858 -484.93261719 585.56469727 C-484.06282227 585.94295654 -483.19302734 586.32121582 -482.296875 586.7109375 C-481.51666992 587.03368652 -480.73646484 587.35643555 -479.93261719 587.68896484 C-477.39822343 589.40822893 -476.89113954 591.12848428 -476 594 C-552.2373338 600.87196041 -664.59502598 610.53420032 -728.1875 558.75 C-738.72403994 549.07711087 -745.95634852 535.81562571 -747.21875 521.5234375 C-748.56470019 483.50034467 -719.4900701 448.0117074 -696 421 C-695.38769531 420.28714844 -694.77539062 419.57429688 -694.14453125 418.83984375 C-683.51149424 406.53986982 -672.44867468 394.33462915 -660.05859375 383.7734375 C-657.49377993 381.56390149 -654.99930653 379.28331707 -652.5 377 C-648.73649479 373.56735239 -644.93870649 370.1844499 -641.09375 366.84375 C-638.53580973 364.59123543 -636.0182102 362.29682908 -633.5 360 C-629.73649479 356.56735239 -625.93870649 353.1844499 -622.09375 349.84375 C-619.53580973 347.59123543 -617.0182102 345.29682908 -614.5 343 C-610.72610318 339.55787433 -606.92122032 336.16222281 -603.05859375 332.8203125 C-601.57136774 331.5052322 -600.10795324 330.16305463 -598.66015625 328.8046875 C-591.25594316 321.87924308 -583.35533221 315.81407586 -575.26464844 309.72070312 C-572.25289785 307.43234412 -569.2792806 305.09713827 -566.30493164 302.76049805 C-557.44215709 295.80247221 -548.39898596 289.14042365 -539.22802734 282.59570312 C-537.03689036 281.02642071 -534.85482789 279.44539309 -532.67578125 277.859375 C-513.85432521 264.16275135 -494.68582174 251.05540127 -475.25 238.25 C-474.38962128 237.68263123 -473.52924255 237.11526245 -472.64279175 236.53070068 C-460.51837173 228.54195343 -448.30216962 220.71194017 -436 213 C-435.0291748 212.38914551 -434.05834961 211.77829102 -433.05810547 211.14892578 C-418.3348358 201.89973096 -403.38101583 193.03924852 -388.4107666 184.19810486 C-384.976237 182.16969829 -381.54530651 180.13564347 -378.12109375 178.08984375 C-366.27713562 171.03123709 -354.19530342 164.3973124 -342.12744141 157.73193359 C-339.43808877 156.24260748 -336.75413127 154.74450124 -334.07421875 153.23828125 C-315.00398626 142.52372698 -295.50467316 132.66244683 -275.84863281 123.07275391 C-272.63195402 121.50339274 -269.41736405 119.92981986 -266.203125 118.35546875 C-254.49028755 112.62414648 -242.75149391 106.94912669 -230.99133301 101.31559753 C-222.17323309 97.0895682 -213.37916111 92.81579062 -204.5947876 88.52017212 C-200.20997178 86.37609308 -195.8236529 84.23509206 -191.4375 82.09375 C-190.11445358 81.44772575 -190.11445358 81.44772575 -188.76467896 80.78865051 C-178.79295276 75.92060773 -168.81396956 71.06747154 -158.82714844 66.23046875 C-152.34578387 63.09013748 -145.86926252 59.9414141 -139.41329956 56.74911499 C-119.94201119 47.12114725 -100.31494776 38.1691837 -80.22320557 29.9140625 C-77.90744694 28.96194716 -75.59299675 28.00670703 -73.27880859 27.05078125 C-62.6619703 22.66673889 -52.03299335 18.31285878 -41.39642334 13.97692871 C-38.99929009 12.9997106 -36.60240896 12.02187617 -34.20556641 11.04394531 C-29.72123323 9.2146924 -25.23584756 7.38803558 -20.75 5.5625 C-20.06356415 5.2829245 -19.3771283 5.003349 -18.66989136 4.71530151 C-16.75430645 3.93546346 -14.83819047 3.15694704 -12.921875 2.37890625 C-11.30684082 1.72257202 -11.30684082 1.72257202 -9.65917969 1.05297852 C-5.87708902 -0.44464883 -3.90178054 -1.21089741 0 0 Z " fill="#000000" transform="translate(1553,1148)"/>
<path d="M0 0 C0.94280823 0.00093658 1.88561646 0.00187317 2.85699463 0.00283813 C75.60054258 0.15858455 149.0152219 15.8337233 215.1875 46.1875 C216.65823975 46.85676514 216.65823975 46.85676514 218.15869141 47.53955078 C229.82826749 52.87540918 241.11510099 58.70380383 252.1875 65.1875 C252.1875 65.8475 252.1875 66.5075 252.1875 67.1875 C251.46908936 67.5592334 250.75067871 67.9309668 250.01049805 68.31396484 C246.63165109 70.0628058 243.25324677 71.81250007 239.875 73.5625 C239.25771027 73.88217743 238.64042053 74.20185486 238.00442505 74.53121948 C230.5268883 78.4044576 223.06348515 82.30216817 215.625 86.25 C207.09035515 90.77192698 198.44885342 95.07180371 189.80053711 99.37133789 C183.38671255 102.56673565 177.01333264 105.82150497 170.6875 109.1875 C163.02325402 113.25432891 155.30809641 117.215318 147.5625 121.125 C146.47130859 121.68123047 145.38011719 122.23746094 144.25585938 122.81054688 C127.92737919 131.00999934 127.92737919 131.00999934 119.3125 129.75 C118.65306396 129.65509277 117.99362793 129.56018555 117.31420898 129.46240234 C109.3825897 128.22361296 101.57261121 126.30308583 93.75244141 124.51098633 C65.40267874 118.08532771 36.4351196 114.96268578 7.375 114.9375 C6.29708191 114.93648788 6.29708191 114.93648788 5.1973877 114.93545532 C-80.69166808 115.06091441 -164.47431427 142.98873933 -287.8125 239.0625 C-291.99811247 243.29735497 -295.97027003 247.64153528 -299.8125 252.1875 C-300.62074219 253.11820313 -301.42898438 254.04890625 -302.26171875 255.0078125 C-324.20503324 280.38562867 -342.47644544 308.87003532 -356.8125 339.1875 C-357.16376953 339.92194336 -357.51503906 340.65638672 -357.87695312 341.41308594 C-364.49235892 355.32643941 -369.93180544 369.57981972 -374.8125 384.1875 C-375.28816406 385.60893311 -375.28816406 385.60893311 -375.7734375 387.05908203 C-379.95680895 399.82149353 -382.9393554 412.78178682 -385.5625 425.9375 C-385.70552551 426.63871979 -385.84855103 427.33993958 -385.99591064 428.06240845 C-390.961738 452.65986427 -392.34252744 477.32991364 -392.1875 502.375 C-392.18275032 503.71957267 -392.17839068 505.06414677 -392.17440796 506.40872192 C-392.10557746 526.47982925 -391.61499207 546.28843927 -388.8125 566.1875 C-388.64089355 567.43756836 -388.46928711 568.68763672 -388.29248047 569.97558594 C-378.91737822 636.21290349 -351.90978036 694.34968935 -312.8125 748.1875 C-312.10416016 749.17830566 -311.39582031 750.16911133 -310.66601562 751.18994141 C-304.13034367 760.04317904 -296.65568165 767.74079481 -288.82568359 775.45556641 C-286.67663393 777.57320726 -284.53867123 779.70156341 -282.40234375 781.83203125 C-281.01624888 783.20896165 -279.6295511 784.58528545 -278.2421875 785.9609375 C-277.61488739 786.58398773 -276.98758728 787.20703796 -276.34127808 787.84896851 C-272.56150663 791.56899112 -268.65933543 795.09332668 -264.64974976 798.56347656 C-262.21937305 800.71179021 -259.9600114 802.9956436 -257.7109375 805.33203125 C-256.8149585 806.25226074 -255.91897949 807.17249023 -254.99584961 808.12060547 C-254.53677216 808.59222107 -254.0776947 809.06383667 -253.60470581 809.54974365 C-240.80396668 823.93962005 -240.80396668 823.93962005 -224.390625 832.703125 C-220.54261312 831.93352262 -217.74777135 829.81787778 -214.625 827.5625 C-213.58593506 826.82966797 -213.58593506 826.82966797 -212.52587891 826.08203125 C-204.80589669 820.57785809 -197.34757822 814.73027501 -189.9140625 808.84814453 C-187.9899139 807.32769161 -186.05944127 805.8159163 -184.125 804.30859375 C-176.5064023 798.3662587 -168.99361402 792.2999301 -161.5078125 786.19140625 C-158.5065257 783.74475481 -155.47833825 781.33490069 -152.4375 778.9375 C-148.2586088 775.60973522 -144.31583686 772.06496032 -140.37109375 768.46484375 C-137.78601189 766.16392356 -135.13326915 763.98226541 -132.4375 761.8125 C-127.88389288 758.13113311 -123.57667484 754.25975527 -119.29345703 750.27392578 C-115.20607285 746.49273247 -110.93215827 742.99067332 -106.59375 739.5 C-103.04064914 736.54573636 -99.6722632 733.41836576 -96.29077148 730.27124023 C-93.0795095 727.30034372 -89.78622185 724.48788923 -86.375 721.75 C-82.19012693 718.38403735 -78.22935602 714.85573983 -74.3125 711.1875 C-69.55158666 706.72877805 -64.64782437 702.54952376 -59.55859375 698.46484375 C-56.01378489 695.52512318 -52.65281255 692.40330004 -49.28613281 689.2644043 C-46.12756773 686.33820628 -42.88069308 683.60198699 -39.5 680.9375 C-30.07969714 673.34930249 -21.41018197 664.48898099 -13.59765625 655.2578125 C-11.15288882 652.42252423 -8.60708509 649.68282636 -6.0625 646.9375 C-5.54751953 646.3813501 -5.03253906 645.8252002 -4.50195312 645.25219727 C-3.45438912 644.12097817 -2.40669983 642.98987508 -1.35888672 641.85888672 C5.1062575 634.87114164 11.5166182 627.83505401 17.875 620.75 C20.46365187 617.88149387 23.07357553 615.03294091 25.6875 612.1875 C30.55406399 606.88318052 35.41551486 601.57732308 40.1875 596.1875 C41.01636719 595.26066406 41.84523438 594.33382812 42.69921875 593.37890625 C56.67874499 577.49096522 67.81431152 559.56898676 78.1875 541.1875 C78.61933594 540.42840332 79.05117187 539.66930664 79.49609375 538.88720703 C91.9840828 516.77887818 100.32924261 494.13830945 100.4375 468.5625 C100.458125 467.36753906 100.47875 466.17257812 100.5 464.94140625 C100.58935816 444.32201163 93.17200496 428.47211777 78.84765625 413.7890625 C70.05879441 405.44178043 59.74923436 399.64874026 48.74609375 394.70703125 C45.78395564 392.94783778 44.26544686 390.90341542 42.1875 388.1875 C108.35248854 383.44310314 175.41202075 381.64375385 240.1875 398.1875 C241.01072754 398.39342773 241.83395508 398.59935547 242.68212891 398.81152344 C266.23966401 404.80689866 291.06295592 415.70831918 304.7890625 436.69921875 C312.67013316 450.72224112 313.5008272 467.57575457 309.625 483.0625 C301.03264287 510.43186136 284.44231685 533.45557518 266.1875 555.1875 C265.6502832 555.82913086 265.11306641 556.47076172 264.55957031 557.13183594 C259.52499855 563.12885457 254.50551519 569.10285263 248.84643555 574.52783203 C247.26067656 576.11429113 245.83205359 577.75512235 244.390625 579.47265625 C239.12444561 585.5283813 233.38971523 591.13419085 227.70874023 596.79663086 C225.75454376 598.7454687 223.80574853 600.69959272 221.85742188 602.65429688 C215.80473541 608.71060753 209.7531083 614.6819785 203.1875 620.1875 C201.99572954 621.22073742 200.80562923 622.25590432 199.6171875 623.29296875 C191.72793209 630.13705701 183.82202311 636.96122699 175.87841797 643.7421875 C174.20930522 645.16886198 172.54402123 646.5999134 170.87890625 648.03125 C164.63996299 653.37558053 158.28098148 658.50913416 151.73828125 663.48046875 C148.44785193 665.98067318 145.18767479 668.51831265 141.93041992 671.06152344 C125.94264178 683.54267559 109.8442587 695.84432358 93.34082031 707.63720703 C91.24358539 709.14712106 89.16268067 710.67690171 87.0859375 712.21484375 C67.04796651 726.9972231 45.86030715 740.21527693 24.82470703 753.51806641 C21.19690695 755.81457603 17.57496301 758.120233 13.95336914 760.42651367 C12.11324719 761.59809101 10.27259146 762.76883041 8.43139648 763.9387207 C3.86446009 766.84112203 -0.69547517 769.75350342 -5.2421875 772.6875 C-23.47934684 784.42952444 -42.21154857 795.22986137 -61.15527344 805.78588867 C-69.2594988 810.30400062 -77.32322315 814.88938703 -85.375 819.5 C-86.58427304 820.19187757 -87.79358254 820.88369141 -89.00292969 821.57543945 C-95.07616256 825.04915172 -95.07616256 825.04915172 -101.14794922 828.52539062 C-120.63570484 839.672102 -140.54984681 850.06887561 -160.51123047 860.33642578 C-166.34128395 863.34617696 -172.08570078 866.44071142 -177.75 869.75 C-188.14520459 875.76517109 -199.20377942 880.51793957 -210.11914062 885.49804688 C-216.03079917 888.19787779 -221.92012446 890.94591722 -227.8125 893.6875 C-230.16266495 894.77885144 -232.51292536 895.86999733 -234.86328125 896.9609375 C-239.36086339 899.04907827 -243.85825441 901.13762973 -248.35546875 903.2265625 C-253.50664138 905.61917324 -258.65832134 908.01068864 -263.81034851 910.40145874 C-267.37657851 912.05647414 -270.94240598 913.71235187 -274.5078125 915.36914062 C-285.8035762 920.61771237 -297.10459137 925.85479031 -308.41204834 931.078125 C-310.63540606 932.10565557 -312.85808038 933.13464824 -315.08056641 934.1640625 C-340.75514329 946.0459067 -366.74496508 957.19823311 -392.8125 968.1875 C-393.57457764 968.50881897 -394.33665527 968.83013794 -395.12182617 969.16119385 C-399.25915761 970.90215133 -403.40565768 972.6184942 -407.5625 974.3125 C-408.90441406 974.86901245 -408.90441406 974.86901245 -410.2734375 975.43676758 C-416.95825513 978.10849568 -423.77463348 979.71378237 -430.8125 981.1875 C-430.8125 980.5275 -430.8125 979.8675 -430.8125 979.1875 C-428.68934175 977.59571374 -426.56599667 976.13459742 -424.34375 974.69140625 C-423.65397064 974.23530975 -422.96419128 973.77921326 -422.25350952 973.30929565 C-420.74305452 972.31152195 -419.23052936 971.31687697 -417.71624756 970.32492065 C-414.44163183 968.17941252 -411.17722395 966.01860442 -407.912323 963.85835266 C-406.18666175 962.71659385 -404.46051616 961.57556678 -402.73391724 960.43522644 C-393.3422535 954.22853484 -384.01244079 947.93130759 -374.6875 941.625 C-373.02216905 940.49962471 -371.3568045 939.37429913 -369.69140625 938.24902344 C-365.55977615 935.4568485 -361.42906247 932.66332132 -357.29870605 929.8692627 C-354.77905488 928.16487647 -352.25918913 926.46080795 -349.73925781 924.75683594 C-340.09562246 918.23576658 -330.45326434 911.7128131 -320.8125 905.1875 C-321.99489258 903.75603638 -321.99489258 903.75603638 -323.20117188 902.2956543 C-323.64456909 901.75885544 -324.08796631 901.22205658 -324.5447998 900.66899109 C-326.01818134 898.9471316 -327.5842979 897.46504405 -329.3125 896 C-329.99828125 895.4121875 -330.6840625 894.824375 -331.390625 894.21875 C-333.18709573 892.71203262 -334.99022975 891.21325235 -336.796875 889.71875 C-346.60211109 881.57698189 -355.77235216 872.95493096 -364.046875 863.234375 C-366.2068342 860.73035151 -368.44737993 858.30752302 -370.6875 855.875 C-374.7642983 851.40525728 -378.62727437 846.8116437 -382.421875 842.1015625 C-384.09381482 840.06354436 -385.77769291 838.06531713 -387.515625 836.0859375 C-396.18794372 826.20311683 -404.03489548 815.78322623 -411.8125 805.1875 C-412.39209473 804.40262207 -412.97168945 803.61774414 -413.56884766 802.80908203 C-426.95253382 784.66828893 -438.67044346 765.78191088 -449.8125 746.1875 C-450.23241211 745.45660156 -450.65232422 744.72570313 -451.08496094 743.97265625 C-472.03226656 707.27399418 -484.66005245 666.22122994 -493.8125 625.1875 C-494.03809601 624.17620026 -494.03809601 624.17620026 -494.26824951 623.14447021 C-514.49433262 531.7348582 -509.84950831 434.08928955 -434.8125 248.1875 C-425.7460888 234.09835102 -416.074591 220.42819863 -405.8125 207.1875 C-404.90486509 206.00266761 -403.99731272 204.81777199 -403.08984375 203.6328125 C-393.59124316 191.31228761 -383.27512556 179.69266477 -372.8125 168.1875 C-372.06742188 167.34960938 -371.32234375 166.51171875 -370.5546875 165.6484375 C-364.29089543 158.6777598 -357.74191136 152.01085948 -351.125 145.375 C-350.23393555 144.47934326 -349.34287109 143.58368652 -348.42480469 142.66088867 C-343.38029729 137.62811487 -338.22087933 132.82424187 -332.8125 128.1875 C-331.20481627 126.73304483 -329.60010285 125.27529105 -328 123.8125 C-322.75069023 119.08173907 -317.31626055 114.61752948 -311.8125 110.1875 C-310.67936303 109.26211592 -309.54656551 108.33631607 -308.4140625 107.41015625 C-236.31289163 48.72542752 -146.50527609 13.38468333 -54.375 2.875 C-53.66463593 2.79359772 -52.95427185 2.71219543 -52.22238159 2.62832642 C-34.81977733 0.66640337 -17.50841857 -0.0226798 0 0 Z " fill="#FF6600" transform="translate(1119.8125,1110.8125)"/>
<path d="M0 0 C2.14163738 -0.00322463 4.28327455 -0.00658954 6.4249115 -0.01008606 C10.8935497 -0.01603579 15.36216868 -0.01793031 19.83081055 -0.01733398 C25.48920085 -0.0172327 31.14746475 -0.03086955 36.80582523 -0.04810619 C41.22544392 -0.05935759 45.64503332 -0.0612492 50.06466484 -0.06072426 C52.14734774 -0.0618853 54.23003188 -0.066198 56.31270027 -0.07405663 C95.29114548 -0.20736353 95.29114548 -0.20736353 111.58984375 5.16796875 C112.23614746 5.37437988 112.88245117 5.58079102 113.54833984 5.79345703 C147.2191062 16.6290573 174.12534924 40.89465644 190.33984375 72.16796875 C195.24476839 82.39694553 198.65454275 92.45482289 200.90234375 103.54296875 C201.15987427 104.76222046 201.15987427 104.76222046 201.42260742 106.00610352 C202.98227575 114.33002981 202.58984375 121.29720039 202.58984375 130.16796875 C180.80984375 130.16796875 159.02984375 130.16796875 136.58984375 130.16796875 C135.59984375 123.56796875 134.60984375 116.96796875 133.58984375 110.16796875 C132.38441694 106.33643355 131.44742383 103.56554264 129.58984375 100.16796875 C128.86667969 98.83958984 128.86667969 98.83958984 128.12890625 97.484375 C119.0407995 82.10286099 106.52430795 73.15102914 89.58984375 68.16796875 C83.95787156 66.93644063 78.39766329 67.0201632 72.66259766 67.02270508 C71.02732872 67.01766716 71.02732872 67.01766716 69.35902405 67.01252747 C65.76147314 67.00304221 62.16396888 67.00107562 58.56640625 67 C56.06065858 66.99678592 53.5549111 66.99342174 51.04916382 66.98991394 C45.79872333 66.98392888 40.54829464 66.98203053 35.29785156 66.98266602 C29.24370749 66.98326654 23.18965259 66.97271594 17.13553107 66.95692235 C11.29428033 66.94223143 5.45306468 66.93867901 -0.38820267 66.93927574 C-2.86566151 66.93809721 -5.34312105 66.93368256 -7.82056808 66.92594337 C-11.28849397 66.91612369 -14.75619137 66.91902942 -18.22412109 66.92504883 C-19.24256607 66.91942932 -20.26101105 66.91380981 -21.31031799 66.90802002 C-37.73778574 66.98031355 -52.11460394 73.54125941 -64.0703125 84.63671875 C-72.4459874 93.22715455 -79.05606623 104.03919101 -80.41015625 116.16796875 C-80.54164062 117.27527344 -80.673125 118.38257813 -80.80859375 119.5234375 C-81.99877511 132.28482651 -81.14210064 144.56329537 -75.41015625 156.16796875 C-75.07371094 156.90144531 -74.73726562 157.63492187 -74.390625 158.390625 C-67.38174485 172.43315166 -54.93258167 181.89403531 -40.41015625 187.16796875 C-33.61304171 189.11405194 -27.12523391 189.46186912 -20.08569336 189.45507812 C-18.4397821 189.46532768 -18.4397821 189.46532768 -16.76062012 189.4757843 C-14.39046697 189.48931549 -12.02028511 189.49840511 -9.6500988 189.50349426 C-5.88532947 189.51183432 -2.12079682 189.53238959 1.64390564 189.55603027 C9.64668661 189.60412668 17.64948221 189.63718898 25.65234375 189.66796875 C34.90873983 189.70364846 44.16503252 189.74598496 53.42132378 189.8039093 C57.10569247 189.8237776 60.78996977 189.83225817 64.47438049 189.84020996 C80.20369261 189.91137864 95.34724048 190.52745998 110.58984375 194.79296875 C111.51772705 195.05021729 112.44561035 195.30746582 113.40161133 195.57250977 C122.04572944 198.09281069 129.81376301 201.66959646 137.58984375 206.16796875 C138.56953125 206.72226563 139.54921875 207.2765625 140.55859375 207.84765625 C163.0649465 221.36440258 180.85796253 241.6533042 191.75097656 265.36474609 C192.47260873 266.91596123 193.24168914 268.44494456 194.01953125 269.96875 C207.28078746 297.76796722 205.94391411 334.54667306 195.9453125 363.078125 C189.46433714 380.18182981 179.09335274 394.93287147 166.58984375 408.16796875 C165.65398438 409.18310547 165.65398438 409.18310547 164.69921875 410.21875 C145.76135708 430.07167642 116.66167675 445.25751322 88.94552517 446.26399422 C85.71382869 446.30501112 82.48342486 446.31450461 79.25146484 446.31323242 C78.02286743 446.31659103 76.79427002 446.31994965 75.52844238 446.32341003 C72.17270015 446.33125978 68.81701983 446.33458637 65.46127272 446.33522582 C63.35838147 446.33593916 61.25549661 446.33807891 59.15260696 446.34072304 C51.79786013 446.34996404 44.44313136 446.35405975 37.08837891 446.35327148 C30.26349103 446.35267199 23.43868253 446.36320169 16.61381471 446.37901515 C10.73071278 446.39215421 4.84763657 446.39745268 -1.0354799 446.39681607 C-4.53852977 446.39656282 -8.04150914 446.39931706 -11.54454422 446.40999413 C-15.46153009 446.42160752 -19.37840997 446.4168896 -23.29541016 446.41088867 C-24.43456879 446.41650818 -25.57372742 446.42212769 -26.74740601 446.42791748 C-37.70108738 446.38556265 -48.29299482 444.9287768 -58.72265625 441.54296875 C-59.52171387 441.28644531 -60.32077148 441.02992188 -61.14404297 440.765625 C-72.66604108 436.91354878 -83.63699964 431.41160247 -93.41015625 424.16796875 C-94.10882812 423.66007812 -94.8075 423.1521875 -95.52734375 422.62890625 C-104.54137115 415.8603661 -113.54210195 408.13459519 -120.41015625 399.16796875 C-120.41015625 398.50796875 -120.41015625 397.84796875 -120.41015625 397.16796875 C-121.07015625 397.16796875 -121.73015625 397.16796875 -122.41015625 397.16796875 C-123.93922091 395.02908066 -125.34477233 392.90162679 -126.72265625 390.66796875 C-127.53773226 389.36326366 -128.35283619 388.05857601 -129.16796875 386.75390625 C-129.55758789 386.12581055 -129.94720703 385.49771484 -130.34863281 384.85058594 C-131.16751305 383.55258166 -132.02685731 382.28004838 -132.90234375 381.01953125 C-139.42328579 371.60039274 -142.43169163 359.76335329 -145.22265625 348.79296875 C-145.42955078 347.98569336 -145.63644531 347.17841797 -145.84960938 346.34667969 C-148.148733 336.8753741 -148.41015625 327.99107654 -148.41015625 318.16796875 C-126.63015625 318.16796875 -104.85015625 318.16796875 -82.41015625 318.16796875 C-81.75015625 322.45796875 -81.09015625 326.74796875 -80.41015625 331.16796875 C-77.25730888 347.80799656 -69.14211168 359.99493333 -55.70703125 370.2265625 C-39.64161417 380.66010851 -20.87745871 380.92631215 -2.37890625 380.83203125 C-0.0077693 380.83541089 2.36336595 380.84027298 4.73449707 380.8465271 C9.6729401 380.85384431 14.61092697 380.84336034 19.54931641 380.81982422 C25.82600484 380.79134052 32.10162365 380.80777233 38.37827301 380.83768654 C43.26531793 380.85589959 48.15211627 380.84993773 53.03916931 380.83704758 C55.35123324 380.83375213 57.66332081 380.83766167 59.97535706 380.84944534 C79.75366098 380.92816873 97.28003759 379.19704866 113.58984375 367.16796875 C114.28335937 366.67425781 114.976875 366.18054687 115.69140625 365.671875 C127.45607559 356.52445589 133.67269749 341.5242733 135.58984375 327.16796875 C136.87043077 309.3800888 133.53101306 292.12723299 121.67724609 278.27587891 C111.67245725 267.23117828 99.21327521 259.11713768 84.08059502 257.97929573 C81.33585316 257.90545484 78.59704604 257.88941546 75.85131836 257.89672852 C74.81566238 257.89150177 73.78000641 257.88627502 72.71296692 257.88088989 C70.47542257 257.87069411 68.2378548 257.86487725 66.00028801 257.8630085 C62.43494262 257.85931571 58.86986827 257.84250366 55.30458069 257.82225037 C45.17079777 257.76715825 35.03697379 257.73639825 24.90307617 257.71166992 C18.68744534 257.69559569 12.4720033 257.66516388 6.25647163 257.62690544 C3.91227826 257.61541614 1.5680508 257.60932653 -0.77617073 257.60922432 C-40.61942124 257.60685967 -78.2347744 251.15144789 -108.08203125 222.61328125 C-109.23445313 221.40285156 -109.23445313 221.40285156 -110.41015625 220.16796875 C-111.17714844 219.37519531 -111.94414063 218.58242187 -112.734375 217.765625 C-122.17780728 207.63539765 -130.3383862 196.65846714 -136.41015625 184.16796875 C-136.92320313 183.13671875 -137.43625 182.10546875 -137.96484375 181.04296875 C-141.91684774 172.54910943 -143.92831257 164.19881471 -145.6484375 155.02734375 C-146.18910891 151.38876428 -146.18910891 151.38876428 -147.41015625 149.16796875 C-148.46309819 142.37245611 -148.56556166 135.52945568 -148.53515625 128.66796875 C-148.53902344 127.79527344 -148.54289062 126.92257812 -148.546875 126.0234375 C-148.53104884 115.3407782 -147.0016001 105.52116431 -144.41015625 95.16796875 C-144.20648437 94.26175781 -144.0028125 93.35554688 -143.79296875 92.421875 C-136.55319387 62.34552628 -113.13624819 34.86159178 -87.453125 18.5625 C-77.75775351 12.66521702 -67.4002337 8.00761401 -56.41015625 5.16796875 C-55.46140625 4.81734375 -54.51265625 4.46671875 -53.53515625 4.10546875 C-36.4716083 -1.01359563 -17.63257762 0.00632957 0 0 Z " fill="#000000" transform="translate(1915.41015625,1322.83203125)"/>
<path d="M0 0 C4.77071228 1.59023743 8.44739011 3.27307993 12.625 5.875 C13.95421478 6.68784727 15.28365386 7.50032784 16.61328125 8.3125 C17.32049316 8.74691406 18.02770508 9.18132812 18.75634766 9.62890625 C23.59631671 12.5866066 28.47530079 15.48015807 33.34594727 18.38696289 C37.64986275 20.96320089 41.92854643 23.57105689 46.171875 26.24609375 C46.99453857 26.76123535 47.81720215 27.27637695 48.66479492 27.80712891 C50.23291455 28.79165448 51.79584297 29.7845099 53.3527832 30.78662109 C54.05234131 31.22441895 54.75189941 31.6622168 55.47265625 32.11328125 C56.08375244 32.50298096 56.69484863 32.89268066 57.32446289 33.29418945 C59.19823974 34.30042691 59.19823974 34.30042691 62 33 C62.825 32.175 63.65 31.35 64.5 30.5 C67 28 67 28 70 27 C70 26.34 70 25.68 70 25 C74.1226596 22.00415571 78.57311853 19.51598868 83 17 C83.96164063 16.44441406 84.92328125 15.88882812 85.9140625 15.31640625 C111.28682595 2.15129314 146.43421022 2.40868826 173.41210938 10.17431641 C185.89295539 14.15641275 196.11575864 20.51495645 206 29 C206.76231934 29.64702881 206.76231934 29.64702881 207.54003906 30.30712891 C213.143564 35.08997166 218.06180815 39.75321292 222 46 C226.78189039 42.0990539 226.78189039 42.0990539 230.9375 37.5625 C234.45016195 33.19828363 238.62264278 28.79245241 244 27 C244 26.34 244 25.68 244 25 C248.1226596 22.00415571 252.57311853 19.51598868 257 17 C257.96164062 16.44441406 258.92328125 15.88882812 259.9140625 15.31640625 C284.84538415 2.38034313 320.42598047 2.17823668 347 10 C351.16172925 11.4079703 355.0721365 13.03923078 359 15 C360.06154297 15.47566406 360.06154297 15.47566406 361.14453125 15.9609375 C374.17488918 21.97494885 386.3059879 32.6494842 395 44 C395 44.66 395 45.32 395 46 C395.66 46 396.32 46 397 46 C412.20434362 66.30670217 414.46732797 88.85570152 414.34057617 113.38867188 C414.33972831 115.70627328 414.34020814 118.0238755 414.34190369 120.34147644 C414.34275886 126.58626952 414.32521099 132.83088715 414.30418181 139.07563972 C414.28533477 145.61922422 414.28365827 152.16281344 414.28010559 158.7064209 C414.27236206 169.67426568 414.25316751 180.64204953 414.22631836 191.60986328 C414.19871261 202.89859706 414.17751108 214.18731343 414.16479492 225.47607422 C414.16400675 226.1738146 414.16321858 226.87155499 414.16240653 227.59043902 C414.15849095 231.09136551 414.15469994 234.59229211 414.15097082 238.0932188 C414.11995292 267.06219442 414.06469239 296.03107766 414 325 C392.55 325 371.1 325 349 325 C348.97812622 314.87038574 348.97812622 314.87038574 348.95581055 304.53613281 C348.90699292 282.89796961 348.84356719 261.25986945 348.77101372 239.62177314 C348.75974634 236.25745199 348.74860776 232.89313043 348.73754883 229.52880859 C348.7342433 228.5241977 348.7342433 228.5241977 348.730871 227.49929163 C348.69555457 216.67274536 348.67065859 205.84619916 348.64965298 195.01961675 C348.62784577 183.90019284 348.59452852 172.78083892 348.55129844 161.66147685 C348.52739513 155.42025322 348.50864734 149.17911166 348.50238609 142.93784332 C348.49632226 137.05767195 348.47627514 131.1777105 348.44572449 125.29761696 C348.43696513 123.14507062 348.4332173 120.99249682 348.43499184 118.8399334 C348.80394091 97.66366741 348.80394091 97.66366741 338.34765625 80.06640625 C329.71878667 72.47127812 321.35525078 72.72798481 310.3125 72.6875 C309.61325409 72.68454926 308.91400818 72.68159851 308.193573 72.67855835 C288.5507776 72.65964472 260.91380602 77.4403701 246.1484375 91.80078125 C241.43130935 97.19976915 240.84980118 100.65822695 240.84178162 107.82034302 C240.83684364 108.7449347 240.83190566 109.66952638 240.82681805 110.622136 C240.81138556 113.73913695 240.80306691 116.85611723 240.79467773 119.97314453 C240.78510373 122.20001408 240.77509393 124.42688179 240.76467896 126.65374756 C240.7375721 132.71540758 240.7165939 138.77707543 240.69667697 144.83876276 C240.67485299 151.16757807 240.64744679 157.49636907 240.62062073 163.82516479 C240.57632966 174.4529316 240.53550264 185.08070607 240.49731445 195.70849609 C240.45796648 206.65642266 240.41654194 217.60433811 240.37231445 228.55224609 C240.36822804 229.56404942 240.36822804 229.56404942 240.36405908 230.59629323 C240.35037972 233.9801522 240.33665942 237.36401101 240.32291877 240.74786973 C240.2089325 268.83189113 240.10294114 296.91593582 240 325 C218.22 325 196.44 325 174 325 C173.97812622 314.66506226 173.97812622 314.66506226 173.95581055 304.12133789 C173.90702375 282.06079934 173.8436065 260.00032049 173.77101372 237.93984807 C173.75974594 234.51157551 173.74860742 231.08330254 173.73754883 227.6550293 C173.7342433 226.63129431 173.7342433 226.63129431 173.730871 225.58687782 C173.69552579 214.54490928 173.670646 203.50294081 173.64965298 192.46093673 C173.62786877 181.12569157 173.59457204 169.79053054 173.55129844 158.45534319 C173.52736397 152.09069541 173.50863658 145.7261286 173.50238609 139.36143684 C173.49633638 133.36882983 173.47634012 127.37643 173.44572449 121.38389969 C173.43694254 119.18655397 173.433222 116.98918118 173.43499184 114.79181862 C173.43664802 111.78631267 173.41991538 108.78143575 173.39872742 105.77601624 C173.40357499 104.91120465 173.40842257 104.04639306 173.41341704 103.15537506 C173.30918794 94.16572133 171.03110294 87.27748377 164.828125 80.72265625 C156.25347296 72.64269567 147.3706964 72.59255264 136.1875 72.625 C135.49025818 72.62554382 134.79301636 72.62608765 134.074646 72.62664795 C123.21097031 72.66570681 113.34134549 73.53864056 103 77 C102.28714844 77.22494141 101.57429688 77.44988281 100.83984375 77.68164062 C88.4381788 81.59625313 75.51315089 85.73027366 68 97 C66.66347156 101.60812218 66.84723535 106.31040004 66.84178162 111.06721497 C66.83684364 111.98211927 66.83190566 112.89702357 66.82681805 113.83965224 C66.81145775 116.90587637 66.80308637 119.97207959 66.79467773 123.03833008 C66.78509806 125.23608585 66.77508793 127.43383979 66.76467896 129.6315918 C66.73763353 135.60010187 66.71662196 141.56861984 66.69667697 147.5371573 C66.67481522 153.77386559 66.64742744 160.01054952 66.62062073 166.24723816 C66.57637082 176.71584003 66.53553513 187.18445064 66.49731445 197.65307617 C66.45794063 208.43498714 66.41650989 219.21688697 66.37231445 229.9987793 C66.36959018 230.66356569 66.36686591 231.32835209 66.36405908 232.01328353 C66.35037929 235.34837839 66.33665688 238.68347306 66.32291877 242.01856768 C66.20910274 269.67902345 66.10299456 297.33950167 66 325 C44.22 325 22.44 325 0 325 C0 217.75 0 110.5 0 0 Z " fill="#000000" transform="translate(2446,1444)"/>
<path d="M0 0 C0 149.49 0 298.98 0 453 C-4.44986793 451.51671069 -6.72023876 450.75678551 -10.27734375 448.234375 C-14.92431156 445.02822953 -19.70555739 442.12491851 -24.5625 439.25 C-31.6680396 435.01866345 -38.72386993 430.72186119 -45.71118164 426.29785156 C-47.46821694 425.18864445 -49.23113897 424.09024139 -51 423 C-51.63510498 422.60731934 -52.27020996 422.21463867 -52.92456055 421.81005859 C-54.58371401 420.81666916 -56.28919321 419.90152809 -58 419 C-60.25 419.5 -60.25 419.5 -62 421 C-63.33333333 421.66666667 -64.66666667 422.33333333 -66 423 C-66 423.66 -66 424.32 -66 425 C-67.88500317 426.52016385 -69.7504024 427.89466416 -71.75 429.25 C-72.34127686 429.65186523 -72.93255371 430.05373047 -73.54174805 430.46777344 C-88.12759097 440.19296645 -104.36571586 446.11949745 -121.96435547 446.17700195 C-122.84661301 446.18357315 -123.72887054 446.19014435 -124.63786316 446.19691467 C-127.54763898 446.21656475 -130.45736322 446.22829585 -133.3671875 446.23828125 C-134.86802069 446.24439454 -134.86802069 446.24439454 -136.39917374 446.25063133 C-141.70198609 446.27146339 -147.00477283 446.2857738 -152.30761719 446.29516602 C-157.74516078 446.30618485 -163.18229003 446.34054063 -168.61968803 446.38033772 C-172.83402182 446.40667754 -177.04825978 446.41487346 -181.26266861 446.41844749 C-183.26463727 446.42327388 -185.26660282 446.43477278 -187.26848984 446.45348549 C-212.48575795 446.6744312 -233.25477827 440.08587562 -253 424 C-254.03125 423.195625 -255.0625 422.39125 -256.125 421.5625 C-273.67053546 405.92408796 -284.40113033 384.2054283 -287 361 C-287.25958536 356.05093468 -287.27404209 351.11547299 -287.25878906 346.16040039 C-287.26150713 344.72308679 -287.26507259 343.28577459 -287.26940918 341.84846497 C-287.27843941 337.98474615 -287.27502786 334.12113549 -287.26865101 330.25741506 C-287.26354102 326.18808176 -287.2682963 322.11875693 -287.27142334 318.04942322 C-287.27504897 311.21823487 -287.27030135 304.38708994 -287.26074219 297.5559082 C-287.24986473 289.69254067 -287.25338376 281.82927694 -287.264395 273.96591192 C-287.2735133 267.17906632 -287.27473094 260.3922517 -287.26951766 253.60540193 C-287.26642224 249.56754035 -287.26592087 245.52972731 -287.27259064 241.49186897 C-287.27842989 237.69223308 -287.27424891 233.89272908 -287.26280212 230.09310722 C-287.25895846 228.05865528 -287.26478491 226.024192 -287.27105713 223.98974609 C-287.2194982 212.60079329 -286.37087007 201.18970466 -282.375 190.4375 C-282.11412598 189.72553467 -281.85325195 189.01356934 -281.58447266 188.2800293 C-272.94581028 165.72801513 -253.16674256 145.19886347 -231.27285767 135.20872498 C-209.88748134 125.93298888 -187.4189247 126.33260468 -164.55444336 126.42358398 C-160.98146964 126.43732338 -157.40956475 126.43041497 -153.83666992 126.40307617 C-120.31575343 126.14734778 -93.61039243 128.29220568 -66 149 C-65.505 83.165 -65.505 83.165 -65 16 C-52.82333329 12.95583332 -40.65473121 9.93160971 -28.4375 7.06445312 C-23.53362772 5.90055939 -18.7707142 4.63626522 -14 3 C-11.73562207 2.43195122 -9.46447339 1.89024655 -7.1875 1.375 C-5.47626953 0.98441406 -5.47626953 0.98441406 -3.73046875 0.5859375 C-1 0 -1 0 0 0 Z M-211.75 200.625 C-212.44609375 201.21539063 -213.1421875 201.80578125 -213.859375 202.4140625 C-220.75971966 210.74988032 -221.72395553 218.57508077 -221.61523438 229.15112305 C-221.61874257 230.55009635 -221.624409 231.94906563 -221.63204956 233.34802246 C-221.6462033 237.11871059 -221.62933227 240.88866123 -221.60576439 244.65927863 C-221.58554407 248.61845501 -221.59154052 252.5776041 -221.59387207 256.53681946 C-221.59381864 263.18002374 -221.57414083 269.82294227 -221.54199219 276.46606445 C-221.5050598 284.13473512 -221.49632435 291.80303247 -221.5032897 299.47178048 C-221.50960375 306.86897717 -221.49882667 314.26604657 -221.47932434 321.66321754 C-221.47117275 324.8030053 -221.46843662 327.94272781 -221.47001648 331.08252525 C-221.47089816 334.7804232 -221.45660381 338.47796871 -221.43078995 342.17577362 C-221.42026378 344.17221357 -221.42428892 346.16871379 -221.42880249 348.16517639 C-221.33155404 358.43338698 -219.08993531 365.38072563 -212 373 C-202.24828028 380.96184711 -191.34116957 381.4858681 -179.25 381.50390625 C-177.70849346 381.51358077 -176.1669895 381.52367554 -174.62548828 381.53416443 C-171.39446674 381.55207039 -168.16368479 381.55769272 -164.93261719 381.5559082 C-161.67233588 381.5556665 -158.41333783 381.57615621 -155.15332031 381.61743164 C-127.27409003 381.96523704 -91.89636781 381.05246315 -70 361 C-66.19457808 356.62017478 -64.87761247 352.4975742 -64.85955811 346.7510376 C-64.85384796 345.6631897 -64.84813782 344.5753418 -64.84225464 343.45452881 C-64.84113678 342.26071594 -64.84001892 341.06690308 -64.83886719 339.83691406 C-64.83390228 338.57975586 -64.82893738 337.32259766 -64.82382202 336.02734375 C-64.81070545 332.57674874 -64.80425428 329.12617318 -64.79981136 325.67555714 C-64.79687886 323.51846112 -64.79277366 321.36137039 -64.78830719 319.20427704 C-64.77463293 312.45158483 -64.76496647 305.69890475 -64.7611053 298.94619966 C-64.75662746 291.15825348 -64.73909214 283.37048308 -64.7101047 275.58259034 C-64.68846366 269.55868747 -64.67839969 263.53483395 -64.67706418 257.51089263 C-64.67601769 253.91515453 -64.67014358 250.31958166 -64.65224457 246.72388458 C-64.63264975 242.70936992 -64.63706247 238.69522131 -64.64355469 234.68066406 C-64.62973251 232.90209015 -64.62973251 232.90209015 -64.6156311 231.08758545 C-64.65147472 224.01349373 -65.06693693 218.70606245 -69.5859375 212.99609375 C-78.30095682 205.40375159 -88.90831665 201.90041574 -99.6875 198.25 C-100.5539917 197.95609375 -101.4204834 197.6621875 -102.31323242 197.359375 C-103.16248291 197.0809375 -104.0117334 196.8025 -104.88671875 196.515625 C-105.63139404 196.27102539 -106.37606934 196.02642578 -107.14331055 195.77441406 C-108.08601807 195.51885742 -109.02872559 195.26330078 -110 195 C-110.63450577 194.82596649 -111.26901154 194.65193298 -111.92274475 194.47262573 C-120.42070726 192.44441642 -129.04305495 192.6717722 -137.72265625 192.6640625 C-139.43558357 192.65762282 -141.14850983 192.65089362 -142.86143494 192.64389038 C-146.43605093 192.63197392 -150.01057065 192.62820405 -153.58520508 192.62939453 C-158.14676834 192.62959815 -162.70771163 192.60222665 -167.26912785 192.56785011 C-170.80121151 192.545534 -174.33314658 192.54155832 -177.8652935 192.54261398 C-179.54648424 192.5402678 -181.22767968 192.53150015 -182.90880013 192.51594925 C-194.0050181 192.42285275 -203.06211881 192.94961624 -211.75 200.625 Z " fill="#000000" transform="translate(3507,1323)"/>
<path d="M0 0 C2.40114072 -0.00525509 4.80227938 -0.01153833 7.20341492 -0.01878357 C12.20301114 -0.02910918 17.20232137 -0.02474088 22.2019043 -0.01000977 C28.53854381 0.00715362 34.87427428 -0.01633056 41.21081257 -0.05149937 C46.1606573 -0.07369534 51.11029198 -0.07197856 56.06017113 -0.06373405 C58.39323104 -0.06292641 60.72630829 -0.06955653 63.05932045 -0.08450508 C87.48101434 -0.21704515 116.30293669 2.38248155 135.51171875 19.56640625 C135.51171875 20.22640625 135.51171875 20.88640625 135.51171875 21.56640625 C136.10106201 21.83267822 136.69040527 22.0989502 137.29760742 22.37329102 C147.33666033 27.78302214 156.30460348 39.72571305 161.51171875 49.56640625 C161.96675781 50.406875 162.42179687 51.24734375 162.890625 52.11328125 C174.07771608 73.61921157 176.49753474 98.56365638 170.88671875 122.19921875 C170.18318018 124.36579775 169.36084734 126.45293642 168.51171875 128.56640625 C168.05732422 129.98373047 168.05732422 129.98373047 167.59375 131.4296875 C159.92232659 154.11162171 141.38652018 172.55325076 120.51171875 183.56640625 C103.11226656 191.85851754 86.57005045 193.73967045 67.39941406 193.67993164 C66.14920471 193.68007767 64.89899536 193.68022369 63.61090088 193.68037415 C60.22326512 193.67980187 56.83569231 193.67482912 53.44806767 193.66780019 C49.89268751 193.66149682 46.33730627 193.66095738 42.78192139 193.65977478 C36.0674457 193.65668187 29.35298654 193.64849632 22.6385181 193.63842529 C14.98663438 193.62720036 7.33474982 193.62173771 -0.3171401 193.61672986 C-16.04086334 193.60631173 -31.76457016 193.58875229 -47.48828125 193.56640625 C-47.41914109 198.85047178 -47.33104787 204.13376581 -47.22583008 209.41723633 C-47.19269712 211.21239625 -47.16462938 213.00765742 -47.1418457 214.80297852 C-47.10808461 217.39252637 -47.05576 219.98115596 -47 222.5703125 C-46.99361008 223.36538712 -46.98722015 224.16046173 -46.9806366 224.97962952 C-46.76104961 233.41359071 -43.51410401 240.57832351 -37.48828125 246.56640625 C-30.42185646 251.11649441 -22.99826232 253.8059595 -14.5786438 253.84487915 C-13.57252542 253.85356775 -13.57252542 253.85356775 -12.54608142 253.86243188 C-10.31208412 253.87935546 -8.07829437 253.88230171 -5.84423828 253.88525391 C-4.23745726 253.89455738 -2.63068104 253.90472667 -1.02391052 253.91569519 C3.32889094 253.94296206 7.6816601 253.95813478 12.03452444 253.97112322 C16.58694756 253.98676825 21.13930485 254.01355411 25.69168091 254.03915405 C34.30816115 254.08591752 42.92465381 254.12267341 51.54119599 254.15582693 C61.35255555 254.19406548 71.16384896 254.24347112 80.97515273 254.29381108 C101.15396528 254.39709481 121.3328057 254.48489269 141.51171875 254.56640625 C141.51171875 276.01640625 141.51171875 297.46640625 141.51171875 319.56640625 C119.1012633 319.65690573 96.69095715 319.73050384 74.28036499 319.77365494 C63.8733666 319.79422852 53.4664903 319.82224897 43.05957031 319.86816406 C33.98266894 319.90819185 24.90585605 319.93387683 15.82886887 319.94276023 C11.0282978 319.94794812 6.22797974 319.96003151 1.42749023 319.98932648 C-3.1033352 320.01674829 -7.63380664 320.02479798 -12.16470718 320.01883698 C-13.81571511 320.01992538 -15.46673654 320.02771831 -17.11767197 320.04322815 C-41.86877697 320.2640842 -64.62705351 312.08712531 -82.48828125 294.56640625 C-84.16018897 292.90499717 -85.82679053 291.23823284 -87.48828125 289.56640625 C-88.266875 288.79683594 -89.04546875 288.02726562 -89.84765625 287.234375 C-107.98868464 268.41157593 -113.81124315 245.23219758 -113.76293945 219.5690918 C-113.76730083 218.1266453 -113.77248865 216.68420112 -113.77842712 215.24176025 C-113.79167586 211.36757776 -113.79241173 207.49349366 -113.78986382 203.61929297 C-113.78878434 200.36440512 -113.79370224 197.1095364 -113.79846925 193.8546527 C-113.8095158 186.16456148 -113.81002946 178.47451912 -113.80395508 170.78442383 C-113.79792043 162.89777134 -113.81022456 155.01129749 -113.83152515 147.12467545 C-113.84924025 140.31058433 -113.85512698 133.49654955 -113.8518874 126.68243629 C-113.85008997 122.63160665 -113.85255423 118.58090445 -113.86660194 114.53009605 C-113.97726955 79.57210244 -109.68049163 53.62514697 -84.61328125 27.37890625 C-79.98331763 22.87806512 -74.80496861 19.2078652 -69.48828125 15.56640625 C-68.52148438 14.87224609 -68.52148438 14.87224609 -67.53515625 14.1640625 C-47.7440256 0.69748882 -23.04566875 -0.06248696 0 0 Z M-34.48828125 70.56640625 C-34.48828125 71.22640625 -34.48828125 71.88640625 -34.48828125 72.56640625 C-35.07351562 72.8190625 -35.65875 73.07171875 -36.26171875 73.33203125 C-38.75066786 74.71186971 -40.23729545 76.18422856 -42.11328125 78.31640625 C-42.70367188 78.97125 -43.2940625 79.62609375 -43.90234375 80.30078125 C-47.6846142 85.70402476 -47.81310091 91.3321022 -47.90234375 97.68359375 C-47.9217099 98.54074982 -47.94107605 99.39790588 -47.96102905 100.28103638 C-48.02049381 103.00106053 -48.06707694 105.72112777 -48.11328125 108.44140625 C-48.15149155 110.29298653 -48.19054503 112.14454962 -48.23046875 113.99609375 C-48.32616789 118.5193905 -48.41032031 123.04277041 -48.48828125 127.56640625 C-31.45036496 127.66001986 -14.41252941 127.73046858 2.62558556 127.77365494 C10.53742466 127.79424381 18.44910358 127.82229367 26.36083984 127.86816406 C33.26005561 127.90814489 40.15915531 127.93386575 47.05848372 127.94276023 C50.70865418 127.94795607 54.35849272 127.96009034 58.00855637 127.98932648 C62.09227716 128.02176808 66.17542796 128.02235849 70.25927734 128.02050781 C71.45762207 128.03488892 72.6559668 128.04927002 73.890625 128.06408691 C84.16223874 128.01385627 92.23205889 125.6261338 99.7578125 118.48046875 C105.58249792 112.12390783 108.44413001 105.4804207 108.54296875 96.83203125 C107.97342228 86.52324018 103.79035933 79.717909 96.51171875 72.56640625 C89.12058303 66.71509047 82.02876889 66.26739785 72.96166992 66.27587891 C71.4041526 66.26580307 71.4041526 66.26580307 69.81517029 66.25552368 C66.39496019 66.23658249 62.97494673 66.23262142 59.5546875 66.23046875 C57.16726095 66.22403819 54.77983519 66.21730963 52.39241028 66.21029663 C47.39171523 66.19833359 42.39108921 66.19461482 37.39038086 66.19580078 C30.9983044 66.19600392 24.60667276 66.16870197 18.21470165 66.13425636 C13.28430671 66.11196479 8.35401844 66.10796394 3.42357826 66.10902023 C1.0677773 66.10666768 -1.28802676 66.09786379 -3.64377785 66.0823555 C-6.94618067 66.06265038 -10.247629 66.06855199 -13.55004883 66.08056641 C-14.99444336 66.06370789 -14.99444336 66.06370789 -16.46801758 66.04650879 C-23.19989961 66.10840722 -28.42099937 67.67934193 -34.48828125 70.56640625 Z " fill="#000000" transform="translate(3009.48828125,1449.43359375)"/>
<path d="M0 0 C1.71897443 -0.00900005 3.43794822 -0.01812229 5.15692139 -0.02735901 C8.75079224 -0.0437628 12.344571 -0.05153199 15.93847656 -0.05444336 C19.57289076 -0.05872884 23.20658877 -0.07944062 26.84082031 -0.1159668 C59.60667485 -0.43924364 88.76733977 0.98007787 115.171875 22.37109375 C115.501875 15.11109375 115.831875 7.85109375 116.171875 0.37109375 C137.621875 0.37109375 159.071875 0.37109375 181.171875 0.37109375 C181.171875 107.95109375 181.171875 215.53109375 181.171875 326.37109375 C174.46784698 324.13641774 174.46784698 324.13641774 171.109375 321.74609375 C163.02616048 316.1667706 154.55897815 311.17323364 146.12109375 306.15234375 C143.63252737 304.64931558 141.16012634 303.12507427 138.69140625 301.58984375 C137.88727295 301.09202393 137.08313965 300.5942041 136.25463867 300.08129883 C134.63884384 299.08023472 133.02563707 298.07497895 131.4152832 297.06518555 C130.66722412 296.60281494 129.91916504 296.14044434 129.1484375 295.6640625 C128.47893066 295.24664795 127.80942383 294.8292334 127.11962891 294.39916992 C125.09400194 293.32999028 123.44765155 292.65563954 121.171875 292.37109375 C119.02598077 294.26695759 119.02598077 294.26695759 117.171875 296.37109375 C116.511875 296.37109375 115.851875 296.37109375 115.171875 296.37109375 C115.171875 297.03109375 115.171875 297.69109375 115.171875 298.37109375 C113.28687183 299.8912576 111.4214726 301.26575791 109.421875 302.62109375 C108.83059814 303.02295898 108.23932129 303.42482422 107.63012695 303.83886719 C93.06141742 313.55263641 76.80634445 319.52606007 59.2199707 319.51635742 C58.33943527 319.51971603 57.45889984 319.52307465 56.55168152 319.52653503 C53.65032527 319.5360072 50.74902699 319.53798647 47.84765625 319.5390625 C45.81992062 319.54227838 43.79218522 319.5456427 41.76445007 319.54914856 C37.51524315 319.555131 33.26605654 319.55698944 29.0168457 319.55639648 C23.59463578 319.55629508 18.17255742 319.56992928 12.75037861 319.58716869 C8.56112582 319.59833606 4.37190432 319.60031422 0.18263817 319.59978676 C-1.81506617 319.60096043 -3.81277148 319.60534749 -5.81046104 319.61311913 C-18.90441977 319.65927822 -30.88431795 319.14964998 -43.328125 314.68359375 C-44.05515625 314.42376709 -44.7821875 314.16394043 -45.53125 313.89624023 C-51.88334743 311.52617019 -57.35848261 308.38632878 -62.828125 304.37109375 C-63.54613281 303.87351562 -64.26414062 303.3759375 -65.00390625 302.86328125 C-85.26567578 288.12071402 -100.8413985 266.4450117 -104.91642761 241.42350769 C-105.98741999 234.12994559 -106.11671621 226.95618846 -106.1027832 219.5949707 C-106.10714346 218.1641463 -106.11233092 216.73332421 -106.11827087 215.30250549 C-106.13153421 211.45505514 -106.13225361 207.60770379 -106.12970757 203.76023507 C-106.12862872 200.52785955 -106.13354461 197.29550332 -106.138313 194.06313199 C-106.14936544 186.4243158 -106.14987039 178.7855488 -106.14379883 171.14672852 C-106.1377689 163.31521583 -106.15005491 155.48388325 -106.1713689 147.65240127 C-106.18909472 140.88587259 -106.19496892 134.11940065 -106.19173115 127.35284966 C-106.18993479 123.3304775 -106.19238648 119.30823369 -106.20644569 115.28588295 C-106.33968581 73.59263395 -106.33968581 73.59263395 -98.828125 58.37109375 C-98.49683594 57.66855469 -98.16554688 56.96601562 -97.82421875 56.2421875 C-95.69211693 51.83584375 -93.29383411 47.59802365 -90.828125 43.37109375 C-90.168125 43.37109375 -89.508125 43.37109375 -88.828125 43.37109375 C-88.5909375 42.65566406 -88.35375 41.94023438 -88.109375 41.203125 C-86.61992231 37.91088964 -84.76017653 35.72358528 -82.328125 33.05859375 C-81.5340625 32.17558594 -80.74 31.29257813 -79.921875 30.3828125 C-77.828125 28.37109375 -77.828125 28.37109375 -75.828125 28.37109375 C-75.61285156 27.80261719 -75.39757813 27.23414063 -75.17578125 26.6484375 C-70.85230221 19.34238451 -60.28121957 14.04624038 -52.828125 10.37109375 C-51.97734375 9.94054688 -51.1265625 9.51 -50.25 9.06640625 C-43.62345753 5.86673289 -37.03958159 3.8001682 -29.828125 2.37109375 C-29.05881149 2.20924591 -28.28949799 2.04739807 -27.49687195 1.88064575 C-18.31512866 0.1270031 -9.30981561 0.02558272 0 0 Z M-30.578125 73.99609375 C-31.27421875 74.58648438 -31.9703125 75.176875 -32.6875 75.78515625 C-39.55784876 84.08473815 -40.56118513 91.91148638 -40.4909668 102.44287109 C-40.49939713 103.83373885 -40.50992979 105.2245952 -40.52238464 106.61543274 C-40.54927265 110.36573213 -40.54477455 114.11536188 -40.53268409 117.86571455 C-40.52551437 121.00906889 -40.53407817 124.15230236 -40.54258949 127.29564726 C-40.56249242 134.71804384 -40.55702976 142.14011796 -40.53491211 149.5625 C-40.51256339 157.19151889 -40.53013923 164.81969087 -40.56796139 172.44862974 C-40.59930555 179.02482578 -40.60707796 185.6007612 -40.59600765 192.17702258 C-40.58955454 196.0931864 -40.59135789 200.00886238 -40.61533165 203.92496872 C-40.6367501 207.61084088 -40.6283942 211.29552954 -40.59823799 214.98132896 C-40.58900396 216.95894953 -40.60896872 218.93664103 -40.63018799 220.91416931 C-40.52106802 229.41363142 -38.8880337 236.37910194 -33.828125 243.37109375 C-31.75479141 244.71331354 -31.75479141 244.71331354 -29.828125 245.37109375 C-29.828125 246.03109375 -29.828125 246.69109375 -29.828125 247.37109375 C-28.28913939 248.16795981 -26.74678716 248.95832516 -25.203125 249.74609375 C-23.91535156 250.40738281 -23.91535156 250.40738281 -22.6015625 251.08203125 C-17.28733718 253.5520233 -12.80639159 254.62599314 -6.93432617 254.69335938 C-5.93986229 254.70825409 -5.93986229 254.70825409 -4.92530823 254.72344971 C-2.74052636 254.75253933 -0.55603727 254.76628815 1.62890625 254.77734375 C2.38654455 254.7829985 3.14418285 254.78865326 3.92477989 254.79447937 C7.95418034 254.82444006 11.9834387 254.8428999 16.01293945 254.8515625 C19.29367616 254.86024702 22.57333558 254.88769175 25.85375977 254.93359375 C53.79749808 255.31693119 89.21110956 254.48253157 111.171875 234.37109375 C114.97729692 229.99126853 116.29426253 225.86866795 116.31231689 220.12213135 C116.31802704 219.03428345 116.32373718 217.94643555 116.32962036 216.82562256 C116.33073822 215.63180969 116.33185608 214.43799683 116.33300781 213.20800781 C116.33797272 211.95084961 116.34293762 210.69369141 116.34805298 209.3984375 C116.36116955 205.94784249 116.36762072 202.49726693 116.37206364 199.04665089 C116.37499614 196.88955487 116.37910134 194.73246414 116.38356781 192.57537079 C116.39724207 185.82267858 116.40690853 179.0699985 116.4107697 172.31729341 C116.41524754 164.52934723 116.43278286 156.74157683 116.4617703 148.95368409 C116.48341134 142.92978122 116.49347531 136.9059277 116.49481082 130.88198638 C116.49585731 127.28624828 116.50173142 123.69067541 116.51963043 120.09497833 C116.53922525 116.08046367 116.53481253 112.06631506 116.52832031 108.05175781 C116.54214249 106.2731839 116.54214249 106.2731839 116.5562439 104.4586792 C116.52040028 97.38458748 116.10493807 92.0771562 111.5859375 86.3671875 C102.87091818 78.77484534 92.26355835 75.27150949 81.484375 71.62109375 C80.6178833 71.3271875 79.7513916 71.03328125 78.85864258 70.73046875 C78.00939209 70.45203125 77.1601416 70.17359375 76.28515625 69.88671875 C75.54048096 69.64211914 74.79580566 69.39751953 74.02856445 69.14550781 C73.08585693 68.88995117 72.14314941 68.63439453 71.171875 68.37109375 C70.53736923 68.19706024 69.90286346 68.02302673 69.24913025 67.84371948 C60.75116774 65.81551017 52.12882005 66.04286595 43.44921875 66.03515625 C41.73629143 66.02871657 40.02336517 66.02198737 38.31044006 66.01498413 C34.73582407 66.00306767 31.16130435 65.9992978 27.58666992 66.00048828 C23.02510666 66.0006919 18.46416337 65.9733204 13.90274715 65.93894386 C10.37066349 65.91662775 6.83872842 65.91265207 3.3065815 65.91370773 C1.62539076 65.91136155 -0.05580468 65.9025939 -1.73692513 65.887043 C-12.8331431 65.7939465 -21.89024381 66.32070999 -30.578125 73.99609375 Z " fill="#000000" transform="translate(3940.828125,1449.62890625)"/>
<path d="M0 0 C0 49.17 0 98.34 0 149 C4.62 145.7 9.24 142.4 14 139 C34.14806006 127.82698488 54.55598767 126.52928896 77.1875 126.4375 C78.20472137 126.42864777 79.22194275 126.41979553 80.26998901 126.41067505 C98.72544243 126.30202506 117.24733081 127.63715387 134 136 C135.06154297 136.47566406 135.06154297 136.47566406 136.14453125 136.9609375 C158.39220104 147.22909279 174.44965046 167.22623317 183.875 189.3125 C189.37934248 205.17193333 189.42829441 221.76875369 189.34057617 238.36206055 C189.33972779 240.64069609 189.34020916 242.91933246 189.34190369 245.19796753 C189.34275682 251.32275385 189.32524271 257.44736029 189.30418181 263.57210517 C189.28530007 269.99555509 189.28365558 276.41901012 189.28010559 282.84248352 C189.27187072 293.604092 189.25319182 304.36562268 189.22631836 315.12719727 C189.1986933 326.20141275 189.17750133 337.27561043 189.16479492 348.34985352 C189.16361267 349.37735986 189.16361267 349.37735986 189.16240653 350.42562392 C189.15849082 353.86280221 189.15469984 357.29998063 189.15097082 360.73715913 C189.11997588 389.1581606 189.0647281 417.57905411 189 446 C167.55 446 146.1 446 124 446 C123.98018066 439.19568359 123.96036133 432.39136719 123.93994141 425.38085938 C123.87510647 403.59898455 123.80057207 381.81715148 123.71994839 360.03532955 C123.70742982 356.65083195 123.694997 353.26633405 123.68261719 349.88183594 C123.68015119 349.20805548 123.6776852 348.53427503 123.67514448 347.84007698 C123.63544235 336.93646483 123.60268375 326.03284234 123.57250018 315.12920016 C123.54136428 303.93748921 123.50259874 292.74581898 123.45720994 281.55415583 C123.43196307 275.26947895 123.41017633 268.98483298 123.39665604 262.70011902 C123.38381939 256.78388704 123.3617474 250.86776117 123.33261681 244.95158768 C123.32355362 242.78123243 123.31785374 240.6108601 123.31578636 238.44048691 C123.31245498 235.47416118 123.29695355 232.50813465 123.2784729 229.54187012 C123.281375 228.25779274 123.281375 228.25779274 123.28433573 226.94777441 C123.18087694 215.81714963 119.72273713 208.00239057 112 200 C111.34 199.67 110.68 199.34 110 199 C110 198.34 110 197.68 110 197 C103.02185323 194.5330909 96.83475471 193.55233857 89.453125 193.6015625 C88.47945984 193.59869232 87.50579468 193.59582214 86.50262451 193.59286499 C84.45551975 193.59083686 82.40839506 193.59627844 80.36132812 193.60888672 C77.27168102 193.62488772 74.18335586 193.60903079 71.09375 193.58984375 C60.33398908 193.57727033 50.3916095 193.96341199 40 197 C38.64865967 197.39082764 38.64865967 197.39082764 37.27001953 197.78955078 C34.8007669 198.55160754 32.36987882 199.37788798 29.9375 200.25 C29.0911499 200.55083496 28.2447998 200.85166992 27.37280273 201.16162109 C17.97174077 204.60245088 8.79861296 208.39802361 2 216 C0.67048331 219.98855007 0.84643356 223.81934431 0.84178162 227.9785614 C0.83684364 228.90809106 0.83190566 229.83762072 0.82681805 230.79531795 C0.81140881 233.92303238 0.80307315 237.05072624 0.79467773 240.1784668 C0.7851019 242.41533592 0.775092 244.65220322 0.76467896 246.8890686 C0.73759186 252.97339604 0.7166029 259.05773126 0.69667697 265.14208579 C0.67484086 271.49625306 0.64744057 277.85039623 0.62062073 284.20454407 C0.57634289 294.87341303 0.53551308 305.54228963 0.49731445 316.21118164 C0.45795818 327.20077479 0.41653164 338.19035692 0.37231445 349.17993164 C0.36959018 349.85719147 0.36686591 350.53445129 0.36405908 351.23223414 C0.35037958 354.62980655 0.33665931 358.02737879 0.32291877 361.42495096 C0.20895815 389.61661211 0.1029583 417.8082964 0 446 C-21.78 446 -43.56 446 -66 446 C-66 304.1 -66 162.2 -66 16 C-60.06 14.68 -54.12 13.36 -48 12 C-44.32463894 10.91274713 -44.32463894 10.91274713 -40.6640625 9.77734375 C-36.35969094 8.5213761 -31.98425302 7.56192836 -27.6159668 6.55737305 C-21.42636122 5.12489211 -15.29877641 3.51090926 -9.171875 1.83203125 C-2.18779343 0 -2.18779343 0 0 0 Z " fill="#000000" transform="translate(3609,1323)"/>
<path d="M0 0 C21.78 0 43.56 0 66 0 C66.01458252 6.85442871 66.02916504 13.70885742 66.04418945 20.77099609 C66.09298625 42.72300807 66.15640626 64.67495851 66.22898628 86.62690433 C66.24025393 90.03886685 66.25139247 93.45082977 66.26245117 96.86279297 C66.26465486 97.54203003 66.26685854 98.2212671 66.269129 98.9210871 C66.30446487 109.90741455 66.32934992 120.89374193 66.35034702 131.88010506 C66.37213869 143.15998108 66.4054421 154.43978375 66.44870156 165.71960127 C66.47262591 172.05242288 66.49135993 178.38516326 66.49761391 184.71802902 C66.50366819 190.68191229 66.523681 196.64558777 66.55427551 202.60939407 C66.56305012 204.7950318 66.56677952 206.98069669 66.56500816 209.16635132 C66.5633493 212.15837038 66.58010721 215.14976056 66.60127258 218.14169312 C66.59642501 218.99970091 66.59157743 219.85770871 66.58658296 220.74171674 C66.68335605 229.07302532 68.44344527 237.56609452 74 244 C82.09418122 250.62843412 90.62363047 253.45543373 101.00390625 253.50390625 C101.83663055 253.51638397 102.66935486 253.52886169 103.52731323 253.54171753 C106.20613023 253.57065195 108.88355236 253.57085141 111.5625 253.5625 C112.47806671 253.56234894 113.39363342 253.56219788 114.33694458 253.56204224 C129.28691557 253.51347948 142.83232992 252.05081852 157 247 C157.85078125 246.71141113 158.7015625 246.42282227 159.578125 246.12548828 C175.86923992 240.63056202 175.86923992 240.63056202 188 229 C189.32176364 225.03470907 189.15007624 221.238507 189.15148926 217.10409546 C189.15572167 216.18343847 189.15995408 215.26278148 189.16431475 214.31422579 C189.17737413 211.21648097 189.1833731 208.1187619 189.18945312 205.02099609 C189.19739273 202.80545391 189.20578046 200.5899133 189.21458435 198.37437439 C189.23266043 193.59768502 189.24766907 188.82099914 189.26036072 184.04429245 C189.28054438 176.4994459 189.30820059 168.95463832 189.33703613 161.40982056 C189.37673624 150.83930291 189.41369945 140.26877929 189.44775391 129.69824219 C189.44991671 129.02731268 189.45207951 128.35638317 189.45430785 127.66512246 C189.47183334 122.21984836 189.48918037 116.7745737 189.50651073 111.32929897 C189.52167466 106.56653759 189.53690676 101.80377644 189.55224609 97.04101562 C189.55440496 96.37029519 189.55656383 95.69957476 189.55878812 95.00852947 C189.59485544 83.84050383 189.63484457 72.67249476 189.67754889 61.5044924 C189.70597418 53.99573786 189.72954231 46.48698807 189.74947357 38.9782064 C189.76281646 34.31830839 189.78023085 29.65843222 189.79878426 24.99855232 C189.80657046 22.82847327 189.81262672 20.65838727 189.81687737 18.48829842 C189.82288163 15.53947376 189.83490854 12.59073515 189.84851074 9.64193726 C189.84880673 8.77143309 189.84910272 7.90092892 189.84940767 7.00404584 C189.88590685 1.11409315 189.88590685 1.11409315 191 0 C192.98887494 -0.09930533 194.98130417 -0.12799462 196.97265625 -0.12939453 C198.8896936 -0.13412277 198.8896936 -0.13412277 200.84545898 -0.13894653 C202.25113967 -0.13715675 203.65682005 -0.1351058 205.0625 -0.1328125 C206.49357113 -0.13348558 207.92464215 -0.13445564 209.35571289 -0.13571167 C212.35857224 -0.13718844 215.3614019 -0.13503476 218.36425781 -0.13037109 C222.22152571 -0.12467381 226.07872404 -0.12795292 229.93598938 -0.13394356 C232.89213591 -0.13754974 235.84826583 -0.13641032 238.80441284 -0.13381577 C240.22704069 -0.13314665 241.64967003 -0.13397437 243.07229614 -0.13629532 C245.05731174 -0.13882274 247.04233259 -0.13429042 249.02734375 -0.12939453 C250.72491821 -0.12820114 250.72491821 -0.12820114 252.45678711 -0.12698364 C255 0 255 0 256 1 C256.09734299 2.73064765 256.12371477 4.46531031 256.12304783 6.19869328 C256.12503888 7.33278789 256.12702993 8.4668825 256.12908131 9.63534361 C256.12616847 10.89698897 256.12325563 12.15863432 256.12025452 13.45851135 C256.1206901 14.79993473 256.12156477 16.14135803 256.12284368 17.48278087 C256.12509116 21.18604378 256.12106393 24.88927803 256.11606562 28.59253728 C256.1117649 32.57960537 256.11320727 36.56667171 256.1139679 40.55374146 C256.11449337 47.46729989 256.11134411 54.38084892 256.10573006 61.29440498 C256.09761825 71.29036373 256.09500017 81.28631792 256.09374207 91.2822796 C256.09155104 107.49832896 256.08488959 123.71437329 256.07543945 139.93041992 C256.06626664 155.68693008 256.05918517 171.44343888 256.05493164 187.19995117 C256.05453756 188.65571743 256.05453756 188.65571743 256.05413551 190.14089311 C256.05283051 195.00944562 256.0515668 199.87799815 256.05032361 204.74655068 C256.03994942 245.16437061 256.02232974 285.58218502 256 326 C251.08949487 324.456317 247.04920386 322.35391088 242.75 319.5625 C241.33652507 318.66183763 239.92243835 317.76213484 238.5078125 316.86328125 C237.77336914 316.39486816 237.03892578 315.92645508 236.28222656 315.44384766 C232.42312167 313.00238998 228.52449813 310.62621838 224.625 308.25 C223.8623584 307.78456787 223.0997168 307.31913574 222.31396484 306.83959961 C217.59499198 303.96276782 212.8701893 301.09630128 208.109375 298.2890625 C206.63510704 297.38812097 205.18850182 296.44103098 203.765625 295.4609375 C203.05921875 294.97882813 202.3528125 294.49671875 201.625 294 C201.01914063 293.566875 200.41328125 293.13375 199.7890625 292.6875 C197.98351415 291.77635626 197.98351415 291.77635626 196.05078125 292.6484375 C193.74228099 294.1698491 191.67310634 295.83828097 189.5625 297.625 C179.86217419 305.46206675 169.78280443 310.97548368 158 315 C157.15179687 315.30808594 156.30359375 315.61617187 155.4296875 315.93359375 C146.49612186 319.09819582 137.99369772 319.15953104 128.578125 319.16796875 C127.28235535 319.17129715 125.98658569 319.17462555 124.65155029 319.17805481 C121.91482714 319.18402009 119.17813544 319.18589746 116.44140625 319.18530273 C112.96413472 319.18520141 109.48706873 319.19883456 106.00984573 319.21607494 C102.65760313 319.22998519 99.30539599 319.22928678 95.953125 319.23046875 C94.10258514 319.24124702 94.10258514 319.24124702 92.21466064 319.25224304 C82.03239303 319.22564555 72.57822091 318.01019171 63.0625 314.3125 C62.38429199 314.05194824 61.70608398 313.79139648 61.00732422 313.52294922 C37.50169616 304.18600678 18.18064078 285.03070337 7.34765625 262.30859375 C5.74095266 258.36402 4.41331565 254.38963064 3.1875 250.3125 C2.9802832 249.62381836 2.77306641 248.93513672 2.55957031 248.22558594 C0.2148005 239.9259707 -0.14865476 231.65579895 -0.12025452 223.0721283 C-0.12110894 222.11297077 -0.12196337 221.15381325 -0.12284368 220.16559035 C-0.12448183 216.97357402 -0.11900452 213.78161104 -0.11352539 210.58959961 C-0.11324313 208.29273479 -0.11340201 205.99586989 -0.1139679 203.69900513 C-0.11425436 197.47865415 -0.1083819 191.25832252 -0.10139394 185.03797603 C-0.0951354 178.53171179 -0.09455462 172.02544708 -0.09336853 165.5191803 C-0.0906153 154.60368506 -0.08437247 143.68819695 -0.07543945 132.77270508 C-0.06625081 121.5331221 -0.05917709 110.29354105 -0.05493164 99.05395508 C-0.05466892 98.36034962 -0.05440619 97.66674416 -0.05413551 96.95212036 C-0.05283041 93.47226748 -0.05156671 89.99241458 -0.05032361 86.51256168 C-0.03996846 57.67503558 -0.02153958 28.83752012 0 0 Z " fill="#000000" transform="translate(2154,1450)"/>
<path d="M0 0 C1637.13 0 3274.26 0 4961 0 C4961 1157.64 4961 2315.28 4961 3508 C3323.87 3508 1686.74 3508 0 3508 C0 2350.36 0 1192.72 0 0 Z M1 2 C1 1158.32 1 2314.64 1 3506 C1637.14 3506 3273.28 3506 4959 3506 C4959 2349.68 4959 1193.36 4959 2 C3322.86 2 1686.72 2 1 2 Z " fill="#000000" transform="translate(0,0)"/>
<path d="M0 0 C17 0 17 0 22 4.3125 C23.36949071 6.18238155 24.70248642 8.07947395 26 10 C27.48496728 11.82483655 28.98518655 13.6373621 30.5 15.4375 C32.0012741 17.29063521 33.50127264 19.1448045 35 21 C36.49872442 22.83437625 37.99872298 24.66771225 39.5 26.5 C40.23605469 27.39976563 40.97210937 28.29953125 41.73046875 29.2265625 C43.2950106 31.13848112 44.86015075 33.04991025 46.42578125 34.9609375 C47.21339844 35.92257812 48.00101563 36.88421875 48.8125 37.875 C49.87404297 39.17050781 49.87404297 39.17050781 50.95703125 40.4921875 C52.98605773 42.98288539 54.99313136 45.4914142 57 48 C57.33 32.16 57.66 16.32 58 0 C64.6 0 71.2 0 78 0 C78 27.72 78 55.44 78 84 C60 84 60 84 53.5625 77.875 C51.91040039 75.80029297 51.91040039 75.80029297 50.72265625 73.9921875 C48.14256312 70.18519049 45.36599408 66.59424685 42.5 63 C41.6026746 61.84519968 40.70554034 60.69025082 39.80859375 59.53515625 C35.52019258 54.07732992 30.94732795 48.8561771 26.38110352 43.63061523 C24.54140127 41.45855031 22.7781734 39.22271675 21 37 C20.67 52.51 20.34 68.02 20 84 C13.4 84 6.8 84 0 84 C0 56.28 0 28.56 0 0 Z " fill="#000000" transform="translate(3462,1857)"/>
<path d="M0 0 C17 0 17 0 22 4.3125 C23.36949071 6.18238155 24.70248642 8.07947395 26 10 C27.48496728 11.82483655 28.98518655 13.6373621 30.5 15.4375 C32.0012741 17.29063521 33.50127264 19.1448045 35 21 C36.49872442 22.83437625 37.99872298 24.66771225 39.5 26.5 C40.23605469 27.39976563 40.97210937 28.29953125 41.73046875 29.2265625 C43.2950106 31.13848112 44.86015075 33.04991025 46.42578125 34.9609375 C47.21339844 35.92257812 48.00101563 36.88421875 48.8125 37.875 C49.87404297 39.17050781 49.87404297 39.17050781 50.95703125 40.4921875 C52.98605773 42.98288539 54.99313136 45.4914142 57 48 C57.33 32.16 57.66 16.32 58 0 C64.6 0 71.2 0 78 0 C78 27.72 78 55.44 78 84 C60 84 60 84 53.5625 77.875 C51.91040039 75.80029297 51.91040039 75.80029297 50.72265625 73.9921875 C48.14256312 70.18519049 45.36599408 66.59424685 42.5 63 C41.6026746 61.84519968 40.70554034 60.69025082 39.80859375 59.53515625 C35.52019258 54.07732992 30.94732795 48.8561771 26.38110352 43.63061523 C24.54140127 41.45855031 22.7781734 39.22271675 21 37 C20.67 52.51 20.34 68.02 20 84 C13.4 84 6.8 84 0 84 C0 56.28 0 28.56 0 0 Z " fill="#000000" transform="translate(1845,1857)"/>
<path d="M0 0 C2.27737693 1.66756691 4.32269666 3.407638 6.36328125 5.35546875 C6.9253125 5.88914062 7.48734375 6.4228125 8.06640625 6.97265625 C17.13679788 16.54695853 18.84552959 28.1837473 18.640625 40.79296875 C18.18391985 51.86295615 12.61444474 61.62050935 4.61328125 69.10546875 C-8.15740813 79.62968887 -22.75963493 80.55964651 -38.63671875 79.35546875 C-49.49855102 77.38466207 -59.87184218 71.15465187 -66.63671875 62.35546875 C-74.01212715 49.68574913 -75.83577472 36.94311869 -72.8359375 22.5 C-68.54439035 10.15627161 -59.59477312 1.90559161 -48.17578125 -3.89453125 C-33.19072479 -10.07747718 -13.67248405 -8.52757894 0 0 Z M-48.234375 19.515625 C-52.73921206 25.42587084 -53.77684928 32.08869999 -53.63671875 39.35546875 C-52.58571475 46.93611459 -49.32335245 52.29938581 -43.63671875 57.35546875 C-37.03635807 62.10938197 -30.60328506 63.13381144 -22.63671875 62.35546875 C-14.56588254 60.55654743 -9.16954008 56.22135988 -4.63671875 49.35546875 C-1.44435763 41.70840763 -1.11645119 32.19582592 -4.13671875 24.41796875 C-7.58978339 17.8887585 -13.45956189 12.99676777 -20.51171875 10.79296875 C-31.12917342 8.6070222 -40.9272797 11.38325776 -48.234375 19.515625 Z " fill="#000000" transform="translate(3880.63671875,1862.64453125)"/>
<path d="M0 0 C2.27737693 1.66756691 4.32269666 3.407638 6.36328125 5.35546875 C6.9253125 5.88914062 7.48734375 6.4228125 8.06640625 6.97265625 C17.13679788 16.54695853 18.84552959 28.1837473 18.640625 40.79296875 C18.18391985 51.86295615 12.61444474 61.62050935 4.61328125 69.10546875 C-8.15740813 79.62968887 -22.75963493 80.55964651 -38.63671875 79.35546875 C-49.49855102 77.38466207 -59.87184218 71.15465187 -66.63671875 62.35546875 C-74.01212715 49.68574913 -75.83577472 36.94311869 -72.8359375 22.5 C-68.54439035 10.15627161 -59.59477312 1.90559161 -48.17578125 -3.89453125 C-33.19072479 -10.07747718 -13.67248405 -8.52757894 0 0 Z M-48.234375 19.515625 C-52.73921206 25.42587084 -53.77684928 32.08869999 -53.63671875 39.35546875 C-52.58571475 46.93611459 -49.32335245 52.29938581 -43.63671875 57.35546875 C-37.03635807 62.10938197 -30.60328506 63.13381144 -22.63671875 62.35546875 C-14.56588254 60.55654743 -9.16954008 56.22135988 -4.63671875 49.35546875 C-1.44435763 41.70840763 -1.11645119 32.19582592 -4.13671875 24.41796875 C-7.58978339 17.8887585 -13.45956189 12.99676777 -20.51171875 10.79296875 C-31.12917342 8.6070222 -40.9272797 11.38325776 -48.234375 19.515625 Z " fill="#000000" transform="translate(3654.63671875,1862.64453125)"/>
<path d="M0 0 C2.27737693 1.66756691 4.32269666 3.407638 6.36328125 5.35546875 C6.9253125 5.88914062 7.48734375 6.4228125 8.06640625 6.97265625 C17.13679788 16.54695853 18.84552959 28.1837473 18.640625 40.79296875 C18.18391985 51.86295615 12.61444474 61.62050935 4.61328125 69.10546875 C-8.15740813 79.62968887 -22.75963493 80.55964651 -38.63671875 79.35546875 C-49.49855102 77.38466207 -59.87184218 71.15465187 -66.63671875 62.35546875 C-74.01212715 49.68574913 -75.83577472 36.94311869 -72.8359375 22.5 C-68.54439035 10.15627161 -59.59477312 1.90559161 -48.17578125 -3.89453125 C-33.19072479 -10.07747718 -13.67248405 -8.52757894 0 0 Z M-48.234375 19.515625 C-52.73921206 25.42587084 -53.77684928 32.08869999 -53.63671875 39.35546875 C-52.58571475 46.93611459 -49.32335245 52.29938581 -43.63671875 57.35546875 C-37.03635807 62.10938197 -30.60328506 63.13381144 -22.63671875 62.35546875 C-14.56588254 60.55654743 -9.16954008 56.22135988 -4.63671875 49.35546875 C-1.44435763 41.70840763 -1.11645119 32.19582592 -4.13671875 24.41796875 C-7.58978339 17.8887585 -13.45956189 12.99676777 -20.51171875 10.79296875 C-31.12917342 8.6070222 -40.9272797 11.38325776 -48.234375 19.515625 Z " fill="#000000" transform="translate(2793.63671875,1862.64453125)"/>
<path d="M0 0 C6.6 0 13.2 0 20 0 C20 10.89 20 21.78 20 33 C32.21 33 44.42 33 57 33 C57 22.11 57 11.22 57 0 C63.6 0 70.2 0 77 0 C77 27.72 77 55.44 77 84 C70.4 84 63.8 84 57 84 C57 72.78 57 61.56 57 50 C44.79 50 32.58 50 20 50 C20 61.22 20 72.44 20 84 C13.4 84 6.8 84 0 84 C0 56.28 0 28.56 0 0 Z " fill="#000000" transform="translate(3339,1857)"/>
<path d="M0 0 C21.12 0 42.24 0 64 0 C64 5.61 64 11.22 64 17 C49.48 17 34.96 17 20 17 C20 22.61 20 28.22 20 34 C32.87 34 45.74 34 59 34 C59 39.28 59 44.56 59 50 C46.13 50 33.26 50 20 50 C20 56.27 20 62.54 20 69 C35.18 69 50.36 69 66 69 C66 74.61 66 80.22 66 86 C44.22 86 22.44 86 0 86 C0 57.62 0 29.24 0 0 Z " fill="#000000" transform="translate(3117,1856)"/>
<path d="M0 0 C21.12 0 42.24 0 64 0 C64 5.61 64 11.22 64 17 C49.48 17 34.96 17 20 17 C20 22.61 20 28.22 20 34 C32.87 34 45.74 34 59 34 C59 39.28 59 44.56 59 50 C46.13 50 33.26 50 20 50 C20 56.27 20 62.54 20 69 C35.18 69 50.36 69 66 69 C66 74.61 66 80.22 66 86 C44.22 86 22.44 86 0 86 C0 57.62 0 29.24 0 0 Z " fill="#000000" transform="translate(2557,1856)"/>
<path d="M0 0 C4.3799146 2.88070762 6.74729588 4.53756052 9.13671875 9.31640625 C5.17671875 12.94640625 1.21671875 16.57640625 -2.86328125 20.31640625 C-7.86328125 18.31640625 -7.86328125 18.31640625 -10.80078125 16.31640625 C-17.23795527 12.1125375 -23.33313284 11.53639088 -30.86328125 12.31640625 C-37.88096691 13.80472079 -43.07080705 16.30984726 -47.48828125 22.0546875 C-51.99178556 29.46244033 -52.68963913 36.91515999 -50.86328125 45.31640625 C-48.88726966 51.50078845 -45.32989117 55.84159083 -39.86328125 59.31640625 C-33.58306743 62.46244909 -26.79875664 63.27888039 -19.86328125 62.31640625 C-17.22328125 61.32640625 -14.58328125 60.33640625 -11.86328125 59.31640625 C-11.53328125 51.39640625 -11.20328125 43.47640625 -10.86328125 35.31640625 C-4.92328125 35.31640625 1.01671875 35.31640625 7.13671875 35.31640625 C7.29778425 40.21228598 7.43694373 45.09893857 7.52124023 49.99536133 C7.55637689 51.65908993 7.60409938 53.32260337 7.66479492 54.9855957 C7.75003257 57.38156159 7.78946828 59.77466633 7.8203125 62.171875 C7.8564415 62.91165085 7.8925705 63.6514267 7.92979431 64.41362 C7.93206648 67.42337312 7.76649807 69.65847272 5.63421631 71.88607788 C2.16614692 74.41766715 -1.41569102 76.18149084 -5.48828125 77.56640625 C-6.38804687 77.8809375 -7.2878125 78.19546875 -8.21484375 78.51953125 C-20.93738092 82.34755128 -37.95071887 82.40463038 -49.86328125 76.31640625 C-60.92424943 70.24337467 -68.79813481 61.75265978 -72.42114258 49.41699219 C-74.890685 37.68427933 -73.71547688 24.4427278 -67.578125 14.1640625 C-53.07083758 -6.88968889 -21.98661873 -12.92801183 0 0 Z " fill="#000000" transform="translate(4007.86328125,1861.68359375)"/>
<path d="M0 0 C6.6 0 13.2 0 20 0 C20.01458252 1.52810303 20.02916504 3.05620605 20.04418945 4.63061523 C20.10238822 10.32811271 20.17962011 16.0252239 20.26245117 21.72241211 C20.29559912 24.18296006 20.32366222 26.6435822 20.34643555 29.10424805 C20.38016755 32.65184997 20.43249428 36.19877824 20.48828125 39.74609375 C20.49467117 40.8370787 20.5010611 41.92806366 20.50764465 43.05210876 C20.63520615 49.75685923 20.81700398 57.26474571 25.38056946 62.62010193 C30.0706341 66.7768777 34.57327056 67.37912936 40.62109375 67.26953125 C44.67003355 66.81078438 47.81833015 65.55541357 51 63 C57.04982097 55.25413096 56.15383527 44.39449797 56.31640625 35.05859375 C56.33718735 34.05031021 56.35796844 33.04202667 56.37937927 32.00318909 C56.44422851 28.81468851 56.50345608 25.62611283 56.5625 22.4375 C56.60574684 20.26236234 56.64936299 18.087232 56.69335938 15.91210938 C56.80053053 10.60814838 56.90008267 5.30412233 57 0 C63.6 0 70.2 0 77 0 C77.04971824 7.2041729 77.08586973 14.40824423 77.10986328 21.61254883 C77.11987393 24.05950665 77.13348649 26.50645265 77.15087891 28.95336914 C77.1753452 32.48586966 77.18653282 36.01821097 77.1953125 39.55078125 C77.20563507 40.63144363 77.21595764 41.71210602 77.22659302 42.82551575 C77.2283733 55.08496878 75.6624523 66.31745931 67.3671875 75.8828125 C56.63364457 85.81758014 43.34324696 85.65076815 29.58496094 85.18359375 C24.54628603 84.82572791 20.37794879 83.45552847 16 81 C15.34257812 80.649375 14.68515625 80.29875 14.0078125 79.9375 C7.00534909 75.60979729 3.13015056 68.38384365 0.64004517 60.74838257 C-0.61223757 55.37102451 -0.36255087 49.92610108 -0.29296875 44.43359375 C-0.28872391 43.15895767 -0.28447906 41.88432159 -0.28010559 40.57106018 C-0.26623423 37.21224507 -0.23936858 33.85406301 -0.20599365 30.49542236 C-0.17508729 27.05624812 -0.16155672 23.617008 -0.14648438 20.17773438 C-0.1135248 13.45162826 -0.06179855 6.72590046 0 0 Z " fill="#000000" transform="translate(2336,1857)"/>
<path d="M0 0 C-0.62816498 3.94949704 -1.8645529 7.19892028 -3.5625 10.8125 C-4.01753906 11.78832031 -4.47257812 12.76414062 -4.94140625 13.76953125 C-5.46541016 14.87361328 -5.46541016 14.87361328 -6 16 C-6.95261719 15.65066406 -7.90523437 15.30132813 -8.88671875 14.94140625 C-10.15357779 14.48158334 -11.4205087 14.02195838 -12.6875 13.5625 C-13.31333984 13.33240234 -13.93917969 13.10230469 -14.58398438 12.86523438 C-23.50131152 9.64379158 -31.95071708 8.56127249 -41 12 C-43.02478463 13.10649669 -43.02478463 13.10649669 -44 15 C-44.58333333 18 -44.58333333 18 -44 21 C-40.51540941 24.65185094 -35.7282359 25.30355411 -31 26.4375 C-29.28452359 26.87251266 -27.5696761 27.31001306 -25.85546875 27.75 C-25.02321777 27.96269531 -24.1909668 28.17539063 -23.33349609 28.39453125 C-13.29121423 31.00018714 -5.17681547 33.75220621 1.4375 42.0625 C4.27337117 47.39393779 4.87670669 52.99449604 3.57421875 58.9453125 C1.30093608 66.05803742 -3.35970314 71.89367932 -10 75.375 C-24.93625801 81.84547818 -42.1924374 81.18580418 -57.3125 75.5625 C-60.9541196 74.07507791 -63.94812973 72.48644063 -67 70 C-66.37183502 66.05050296 -65.1354471 62.80107972 -63.4375 59.1875 C-62.98246094 58.21167969 -62.52742188 57.23585938 -62.05859375 56.23046875 C-61.70925781 55.49441406 -61.35992188 54.75835938 -61 54 C-57.87213722 55.22275962 -54.83860081 56.54656321 -51.8125 58 C-42.76887562 62.01273399 -31.94564262 64.02000641 -22.4375 60.5625 C-19.23042476 59.34746591 -19.23042476 59.34746591 -18 58 C-17.41557037 55.12762267 -17.41557037 55.12762267 -18 52 C-24.09431404 46.56741533 -32.44286092 45.63786604 -40.171875 43.8203125 C-48.38187541 41.7678124 -57.48576592 39.11952773 -62.5625 31.8125 C-66.01097806 25.06547772 -66.21974176 16.87896705 -64.38671875 9.546875 C-61.5453404 3.1881957 -56.44700795 -1.4331782 -50.1640625 -4.2890625 C-35.1059834 -9.66971287 -12.98062053 -10.86894064 0 0 Z " fill="#000000" transform="translate(2029,1863)"/>
<path d="M0 0 C4.37662406 2.88262066 6.74400202 4.53878528 9.1328125 9.31640625 C5.1728125 13.27640625 1.2128125 17.23640625 -2.8671875 21.31640625 C-5.74129783 19.87935109 -7.77608307 18.71519088 -10.2421875 16.81640625 C-16.71743397 12.18537555 -23.05426488 11.4884063 -30.8671875 12.31640625 C-37.50949322 13.84181948 -42.24964818 16.67361364 -46.45703125 22.0546875 C-51.04098586 29.40679198 -51.68815252 36.93996718 -49.8671875 45.31640625 C-47.64945042 52.25732391 -43.32374246 56.81431501 -37.0234375 60.3515625 C-30.81575825 63.08650315 -23.88401932 63.48745753 -17.375 61.58984375 C-12.49534634 59.56897708 -8.7340254 56.88579509 -4.8671875 53.31640625 C-1.15673503 54.89421548 1.43187634 57.22343873 4.3828125 59.94140625 C5.27484375 60.75867187 6.166875 61.5759375 7.0859375 62.41796875 C7.76140625 63.04445313 8.436875 63.6709375 9.1328125 64.31640625 C5.38074863 72.66429956 -2.698817 76.17664975 -10.8671875 79.31640625 C-22.34452746 82.68686772 -38.29118953 81.72154445 -48.8671875 76.31640625 C-59.92815568 70.24337467 -67.80204106 61.75265978 -71.42504883 49.41699219 C-73.89459125 37.68427933 -72.71938313 24.4427278 -66.58203125 14.1640625 C-52.2031081 -6.70339978 -21.84156499 -12.82522413 0 0 Z " fill="#000000" transform="translate(3290.8671875,1861.68359375)"/>
<path d="M0 0 C21.12 0 42.24 0 64 0 C64 5.61 64 11.22 64 17 C49.48 17 34.96 17 20 17 C20 24.26 20 31.52 20 39 C32.87 39 45.74 39 59 39 C59 44.28 59 49.56 59 55 C46.13 55 33.26 55 20 55 C20 64.9 20 74.8 20 85 C13.4 85 6.8 85 0 85 C0 56.95 0 28.9 0 0 Z " fill="#000000" transform="translate(2853,1856)"/>
<path d="M0 0 C18.38295641 -2.50830158 18.38295641 -2.50830158 23.84619141 1.28027344 C27.02956983 4.89002581 28.91521356 9.21036125 30.85205078 13.57714844 C32.91422626 17.92955793 35.56045384 21.93080594 38.125 26 C39.06786647 27.53997882 40.00822327 29.08149887 40.9453125 30.625 C41.62335937 31.73875 42.30140625 32.8525 43 34 C46.47798085 30.84894643 48.77101456 27.34085963 51.07421875 23.30078125 C51.44352005 22.66512741 51.81282135 22.02947357 52.1933136 21.3745575 C53.36395183 19.3572243 54.52603673 17.335127 55.6875 15.3125 C56.86129615 13.28014484 58.0368356 11.248817 59.21382141 9.2183075 C59.94389499 7.95755586 60.67181458 6.695554 61.39738464 5.4322052 C63.89040788 1.10959212 63.89040788 1.10959212 65 0 C66.56172745 -0.08685603 68.12729344 -0.10702219 69.69140625 -0.09765625 C70.63564453 -0.09443359 71.57988281 -0.09121094 72.55273438 -0.08789062 C73.54595703 -0.07951172 74.53917969 -0.07113281 75.5625 -0.0625 C76.55958984 -0.05798828 77.55667969 -0.05347656 78.58398438 -0.04882812 C81.05604849 -0.03700007 83.52799518 -0.02051849 86 0 C80.62060628 9.49151298 75.13129016 18.9123558 69.5534668 28.28857422 C68.30163514 30.39326699 67.0520727 32.49929519 65.80273438 34.60546875 C65.19252693 35.63133087 65.19252693 35.63133087 64.56999207 36.67791748 C63.77268227 38.0211944 62.97891976 39.36658389 62.18891907 40.71417236 C60.27198341 43.96555932 58.24929104 47.00622104 55.96875 50.0078125 C52.38916829 55.67232456 53.21262475 63.01629195 53.1875 69.5 C53.16432103 70.90889229 53.13894869 72.31775029 53.11132812 73.7265625 C53.05269494 77.15074077 53.02342699 80.5753999 53 84 C46.4 84 39.8 84 33 84 C33.07863281 82.07800781 33.15726563 80.15601563 33.23828125 78.17578125 C33.55789805 61.14351242 31.50034852 50.07723118 21.15966797 36.08886719 C17.08869237 30.26635043 13.57690289 24.0932479 9.98822021 17.96600342 C8.69995244 15.77121491 7.40083889 13.58322392 6.09814453 11.39697266 C5.29834331 10.05120143 4.49869417 8.7053398 3.69921875 7.359375 C3.3248317 6.73128937 2.95044464 6.10320374 2.56471252 5.45608521 C0 1.1144774 0 1.1144774 0 0 Z " fill="#000000" transform="translate(4047,1857)"/>
<path d="M0 0 C24.42 0 48.84 0 74 0 C74 5.28 74 10.56 74 16 C65.09 16 56.18 16 47 16 C47 38.44 47 60.88 47 84 C40.4 84 33.8 84 27 84 C27 61.56 27 39.12 27 16 C18.09 16 9.18 16 0 16 C0 10.72 0 5.44 0 0 Z " fill="#000000" transform="translate(3007,1857)"/>
<path d="M0 0 C24.42 0 48.84 0 74 0 C74 5.28 74 10.56 74 16 C65.09 16 56.18 16 47 16 C47 38.44 47 60.88 47 84 C40.4 84 33.8 84 27 84 C27 61.56 27 39.12 27 16 C18.09 16 9.18 16 0 16 C0 10.72 0 5.44 0 0 Z " fill="#000000" transform="translate(2446,1857)"/>
<path d="M0 0 C24.42 0 48.84 0 74 0 C74 5.28 74 10.56 74 16 C65.09 16 56.18 16 47 16 C47 38.44 47 60.88 47 84 C40.4 84 33.8 84 27 84 C27 61.56 27 39.12 27 16 C18.09 16 9.18 16 0 16 C0 10.72 0 5.44 0 0 Z " fill="#000000" transform="translate(2227,1857)"/>
<path d="M0 0 C24.42 0 48.84 0 74 0 C74 5.28 74 10.56 74 16 C65.09 16 56.18 16 47 16 C47 38.44 47 60.88 47 84 C40.4 84 33.8 84 27 84 C27 61.56 27 39.12 27 16 C18.09 16 9.18 16 0 16 C0 10.72 0 5.44 0 0 Z " fill="#000000" transform="translate(2061,1857)"/>
<path d="M0 0 C6.6 0 13.2 0 20 0 C20 22.44 20 44.88 20 68 C33.86 68 47.72 68 62 68 C62 73.28 62 78.56 62 84 C41.54 84 21.08 84 0 84 C0 56.28 0 28.56 0 0 Z " fill="#000000" transform="translate(3714,1857)"/>
<path d="M0 0 C6.6 0 13.2 0 20 0 C20 27.72 20 55.44 20 84 C13.4 84 6.8 84 0 84 C0 56.28 0 28.56 0 0 Z " fill="#000000" transform="translate(2171,1857)"/>
<path d="M0 0 C6.6 0 13.2 0 20 0 C20 27.72 20 55.44 20 84 C13.4 84 6.8 84 0 84 C0 56.28 0 28.56 0 0 Z " fill="#000000" transform="translate(1779,1857)"/>
</svg>
